<svg width="514" height="439" fill="none" xmlns="http://www.w3.org/2000/svg"><g clip-path="url(#clip0)"><path d="M107.996 55.816c16.916 1.138 23.999-10.413 31.937-25.258 21.758-40.635 70.222-36.724 86.478-11.703 11.512 17.728 36.345 14.076 56.424 7.14 19.764-6.826 53.445-13.382 80.282-5.222 23.436 7.13 33.042 32.833 54.41 31.25 46.601-3.445 70.091 42.576 61.644 62.655-5.513 13.101-8.242 27.762-3.769 41.242 4.927 14.845 16.201 26.602 25.309 39.367 9.108 12.765 16.44 28.726 11.913 43.702-3.877 12.819-15.432 21.683-22.602 33.006-22.277 35.185-.238 89.116-29.923 118.449-21.248 20.989-55.882 16.146-85.611 20.155-24.789 3.337-48.117 13.762-72.799 17.836-49.98 8.268-100.447-9.937-151.11-10.457-17.848-.184-36.031 1.81-53.316-2.59-23.067-5.873-42.691-23.633-50.695-45.858-11.046-30.666-.584-66.164-13.05-96.289C23.36 248.698-1.495 228.727.076 202.244c.974-16.493 12.226-30.276 19.97-44.905 11.501-21.726-3.736-107.656 87.95-101.523zm147.482-39.811c-4.451 0-8.047 2.763-8.047 6.166 0 3.402 3.618 5.873 8.047 6.165 14.458.954 14.458-4.887 14.458-8.3 0-5.44-10.018-4.031-14.458-4.031zM402.3 42.315c3.866 3.196 8.794 5.104 13.819 5.364 1.343.065 2.805-.022 3.833-.867 1.278-1.051 1.419-3.208.282-4.41-.715-.759-1.754-1.095-2.729-1.496-1.657-.672-3.271-1.636-4.213-3.142-.271-.434-.509-.943-.953-1.192C409.556 35 397.21 38.11 402.3 42.315zm24.627 5.45c1.278.445 2.664.033 3.953-.379.823-.27 1.83-.856 1.614-1.68-.109-.4-.477-.66-.845-.856-1.69-.899-3.877-1.57-5.567-.411-1.7 1.148-.422 2.893.845 3.326zm58.796 116.238c.216 1.918 1.408 3.576 2.545 5.137 2.209 3.012 4.451 6.068 7.364 8.419 1.235.997 2.664 1.886 4.256 1.94 1.451.054 2.838-.607 4.007-1.452 2.859-2.048 4.787-5.331 5.188-8.81.541-4.768-1.679-9.416-4.256-13.48-1.603-2.514-3.466-5.028-6.13-6.371-4.484-2.265-7.44-.293-8.696 3.684-1.138 3.662-4.744 6.859-4.278 10.933zM8.793 275.073c-2.36 2.08-.227 8.17.466 12.19.206 1.203.488 2.449 1.246 3.414 1.04 1.311 2.772 1.853 4.386 2.329 2.87.835 6.357 1.539 8.556-.476 1.624-1.496 1.862-3.945 1.851-6.145 0-2.015-.108-4.02-.324-6.024-.098-.965-.239-1.951-.759-2.774-.66-1.051-1.83-1.658-2.967-2.146-4.105-1.734-10.094-2.438-12.454-.368zM153.07 427.611c-1.397.282-3.065.889-3.271 2.287-.162 1.159.802 2.145 1.744 2.839 7.7 5.754 18.075 6.122 27.714 6.252 1.126.011 2.296.022 3.325-.411 2.057-.867 3.054-3.587 2.09-5.592-.347-.737-.899-1.354-1.484-1.918-7.732-7.553-20.468-5.385-30.118-3.457zm192.405-3.89c-8.696 6.361.097 12.05 11.079 7.835 5.913-2.276 11.588-4.519 17.653-6.036 1.96-.488 13.797-3.056 13.797-5.71 0-7.055-13.332-5.386-21.725-4.216-6.768.943-13.635 2.883-20.804 8.127z" fill="#ECF3FF"/><path d="M182.062 405.332c23.118 0 41.858-1.751 41.858-3.911 0-2.161-18.74-3.912-41.858-3.912-23.117 0-41.857 1.751-41.857 3.912 0 2.16 18.74 3.911 41.857 3.911zM397.091 405.332c23.117 0 41.858-1.751 41.858-3.911 0-2.161-18.741-3.912-41.858-3.912-23.118 0-41.858 1.751-41.858 3.912 0 2.16 18.74 3.911 41.858 3.911z" fill="#C8DBFB"/><path d="M485.528 125.947a57.32 57.32 0 00-.39-2.135" stroke="#C8DBFB" stroke-linecap="round" stroke-linejoin="round"/><path d="M484.109 119.619c-7.462-25.443-31.277-22.983-52.796-22.94-23.165.043-381.766.791-381.766.791-36.042.076-32.544 52.132-4.332 52.067 16.223-.032 22.396 30.449-5.653 30.504-16.83.032-17.371 21.379-6.054 25.659" stroke="#C8DBFB" stroke-linecap="round" stroke-linejoin="round" stroke-dasharray="3.99 3.99"/><path d="M35.587 206.253c.682.119 1.408.184 2.166.173" stroke="#C8DBFB" stroke-linecap="round" stroke-linejoin="round"/><path d="M42.172 205.44a5.199 5.199 0 01-4.246 5.992 5.197 5.197 0 01-5.989-4.247 5.2 5.2 0 014.246-5.993c2.826-.476 5.512 1.431 5.989 4.248zM490.629 128.288a5.18 5.18 0 01-6.032 4.171 5.182 5.182 0 01-4.17-6.035 5.18 5.18 0 016.032-4.172c2.816.509 4.679 3.207 4.17 6.036zM95.044 167.536c-.748 4.215-1.841 8.333-3.173 12.396-2.87 8.767-6.834 17.208-10.841 25.541-2.09 4.356-10.57 14.433-15.119 16.351.53-11.367.574-24.641-.747-36.116-1.267-11.053 2.707-19.429-1.625-29.68-.552-1.311-1.126-2.622-1.7-3.933-2.155-4.877-4.289-9.775-4.96-15.03-.866-6.664 1.202-14.26 6.964-17.728 4.147-2.492 9.552-2.362 13.981-.401 4.43 1.962 7.982 5.548 10.678 9.568 7.549 11.227 8.913 25.725 6.542 39.032z" fill="#5193F4"/><path d="M74.9 130.726c8.48 11.984 9.216 25.941 9.953 40.602.736 14.662-2.783 29.518-10.029 42.283" stroke="#0B43A4" stroke-miterlimit="10" stroke-linecap="round" stroke-linejoin="round"/><path d="M74.543 351.759c-5.946-5.255-11.957-10.587-16.354-17.197-3.823-5.753-6.292-12.288-9.627-18.345-2.156-3.912-4.712-7.693-5.957-11.985-1.245-4.291-.953-9.384 2.101-12.645 3.184-3.414 8.653-3.934 12.974-2.178 4.321 1.755 7.625 5.396 10.137 9.319a44.453 44.453 0 016.52 17.262c.844 5.548.628 11.226 1.494 16.774.802 5.168 2.545 10.131 4.733 14.867 1.982 4.291 7.018 11.952 8.296 16.351-3.563 1.767-11.783-9.98-14.317-12.223z" fill="#00AD9F"/><path d="M53.76 297.254c5.653 2.471 7.895 9.221 9.075 15.279 1.343 6.892 1.04 14.358 4.202 20.632 5.957 11.822 13.7 25.269 19.462 29.289" stroke="#00AD9F" stroke-miterlimit="10" stroke-linecap="round" stroke-linejoin="round"/><path d="M45.29 335.592c-4.927-1.951-11.522-2.752-14.685 1.506-2.642 3.565-1.278 8.626.553 12.667 1.548 3.414 3.509 6.892 6.758 8.745 2.22 1.268 4.83 1.647 7.375 1.951 7.093.845 14.23 1.257 21.378 1.235 8.274-.022 18.303 3.359 25.158 8.528-8.794-16.341-29.934-28.076-46.536-34.632z" fill="#0056EC"/><path d="M36.638 346.211c6.281.271 12.617.705 18.638 2.492 6.162 1.821 29.869 12.711 33.573 17.338" stroke="#0B43A4" stroke-miterlimit="10" stroke-linecap="round" stroke-linejoin="round"/><path d="M99.094 302.043c-6.422-10.055-17.404-17.077-29.22-18.67-8.728-1.17-17.706.455-26.327-1.354-9.054-1.897-17.22-7.737-21.941-15.702-4.722-7.964-5.957-17.912-3.303-26.787 2.025-6.74 6.65-13.133 13.342-15.289 3.65-1.17 7.635-1.008 11.36-.119 3.445.823 6.64 2.264 9.585 4.139 6.736 4.269 12.184 10.836 16.278 17.814 3.714 6.339 12.877 16.211 19.115 22.637 3.66 3.749 6.313 6.317 6.313 6.317 4.267 5.332 2.264 20.675 4.798 27.014z" fill="#52D2BC"/><path d="M29.685 243.735c20.977 9.47 43.85 21.889 58.73 39.465" stroke="#00AD9F" stroke-miterlimit="10" stroke-linecap="round" stroke-linejoin="round"/><path opacity=".2" d="M90.43 280.837s-31.255-25.356-37.85-52.565c6.736 4.269 12.183 10.836 16.277 17.814 3.715 6.339 12.877 16.211 19.115 22.637a556.125 556.125 0 012.458 12.114zM91.87 179.932c-2.87 8.767-6.833 17.208-10.84 25.541-2.09 4.356-10.57 14.433-15.119 16.351.53-11.367.574-24.641-.747-36.116-1.267-11.053 2.707-19.429-1.625-29.68-.552-1.311-1.126-2.622-1.7-3.934.4.131.79.271 1.17.434 7.126 3.056 10.418 10.598 11.025 17.923.509 6.046-.585 12.104-1.397 18.118-.38 2.774-.683 5.613-.087 8.332.01.033.022.055.022.087.747 3.24 5.48 3.056 6.086-.227l1.895-10.067c.563-3.013 1.18-6.166 3.65-8.268.975-.834 2.23-1.354 3.509-1.311 2.036.076 3.314 1.268 4.159 2.817z" fill="#5275A0"/><path d="M90.43 274.487c-4.938-25.8-7.538-29.777-5.36-36.246 2.772-8.246 1.212-16.525 3.822-24.825 2.61-8.29 4.386-17.208 2.285-25.649-.66-2.666-2.014-5.57-5.22-5.689-1.288-.044-2.534.477-3.508 1.311-2.47 2.102-3.087 5.255-3.65 8.268l-1.885 10.067c-.617 3.272-5.339 3.467-6.086.216-.01-.032-.01-.054-.022-.086-.606-2.72-.292-5.559.076-8.333.812-6.025 1.906-12.072 1.408-18.129-.607-7.325-3.899-14.867-11.036-17.912a12.585 12.585 0 00-8.046-.639c-7.44 1.907-9.368 9.189-8.274 15.398.769 4.377 2.815 8.398 4.667 12.429 4.527 9.85 1.202 18.887 1.83 29.712 1.733 29.897 39 60.107 39 60.107z" fill="#7EE8D4"/><path d="M57.226 164.664c3.67 18.357 7.386 36.843 14.512 54.159 2.09 5.071 3.108 11.757 15.205 25.562" stroke="#00AD9F" stroke-miterlimit="10" stroke-linecap="round" stroke-linejoin="round"/><path d="M200.452 169.367c-3.802-4.345-7.311-8.766-11.004-13.025-2.393-2.763-4.862-5.461-7.548-8.018a76.301 76.301 0 00-4.159-3.717c-8.577-7.087-18.151-12.971-28.385-17.349-6.173-2.644-12.693-4.822-17.935-9.037-5.241-4.204-9.01-11.118-7.266-17.608 1.267-4.681 5.241-8.322 9.801-9.991 4.548-1.658 9.595-1.528 14.328-.51 13.212 2.85 24.248 12.354 31.753 23.591.13.195.271.4.401.606 5.501 8.398 9.346 17.739 12.693 27.253a482.414 482.414 0 013.097 9.2c1.516 4.583 6.173 14.065 4.224 18.605z" fill="#5193F4"/><path d="M140.01 101.154c14.414 2.753 24.616 12.299 35.305 22.355 10.689 10.056 18.444 23.2 22.072 37.428" stroke="#0B43A4" stroke-miterlimit="10" stroke-linecap="round" stroke-linejoin="round"/><path opacity=".2" d="M189.448 156.342c-.119 1.496-.075 2.991.206 4.508-3.606-.823-6.108-6.426-7.754-12.526-1.614-5.928-2.415-12.343-2.664-15.301a66.203 66.203 0 011.202-18.714c5.501 8.398 9.346 17.739 12.693 27.253a112.464 112.464 0 00-2.946 10.359c-.347 1.485-.618 2.948-.737 4.421z" fill="#5275A0"/><path d="M214.455 104.275c-1.224 5.407-4.484 10.078-7.365 14.824a115.093 115.093 0 00-4.256 7.661 116.741 116.741 0 00-9.595 26.245c-.704 2.98-1.094 5.905-.531 8.929-7.104-1.626-9.942-21.835-10.418-27.838-.856-10.814.985-21.9 5.436-31.804 1.939-4.345 4.452-8.614 8.318-11.4 3.855-2.784 9.314-3.76 13.397-1.332 2.458 1.463 4.039 3.89 4.808 6.653.758 2.58.791 5.451.206 8.062z" fill="#52D2BC"/><path d="M190.001 155.974c-4.419-11.107-1.733-34.61 5.35-49.38 2.133-4.453 5.176-8.625 9.433-11.107" stroke="#00AD9F" stroke-miterlimit="10" stroke-linecap="round" stroke-linejoin="round"/><path opacity=".2" d="M214.455 104.276c-1.224 5.407-4.484 10.077-7.365 14.824a114.643 114.643 0 00-4.256 7.661c-1.939-3.273-3.271-6.881-3.639-10.652-.595-6.296 1.809-13.036 6.921-16.742 2.393-1.723 5.198-2.709 8.133-3.153.758 2.579.79 5.45.206 8.062z" fill="#5275A0"/><path d="M255.446 151.314a22.924 22.924 0 01-1.841 5.982c-3.152 6.827-9.769 12.678-19.678 17.446 0 0-.552-10.793-.672-13.686-.487-12.375-13.905-19.212-22.396-28.239-4.321-4.605-7.602-10.413-8.209-16.709-.596-6.296 1.809-13.036 6.92-16.742 4.289-3.099 9.899-3.77 15.184-3.37 8.512.683 17.1 4.248 22.396 10.901.228.25.423.521.618.781 3.238 4.432 4.906 9.828 6.129 15.203 2.123 9.308 3.076 18.995 1.549 28.433z" fill="#00AD9F"/><path d="M213.231 105.998c9.292 4.811 18.595 10.619 23.999 19.57 7.548 12.494 5.902 28.748.087 42.13" stroke="#00AD9F" stroke-miterlimit="10" stroke-linecap="round" stroke-linejoin="round"/><path d="M410.856 231.122c5.924-9.753 2.891-22.301 4.96-33.516 1.581-8.626 6.379-16.623 13.245-22.084 4.31-3.424 10.364-5.873 15.227-3.305 1.05.553 2.306 1.344 3.324.715.607-.368.845-1.127.997-1.82 1.234-6.058-1.679-12.678.704-18.389 1.278-3.077 3.931-5.375 6.736-7.163a36.704 36.704 0 0118.162-5.699c1.7-.065 3.476 0 5.003.758 2.751 1.376 4.007 4.811 3.639 7.867-.368 3.056-2.058 5.797-3.92 8.246-6.217 8.138-15.325 15.16-16.527 25.324-.151 1.279-.151 2.644.433 3.793.574 1.116 1.636 1.907 2.231 3.001 1.917 3.522-1.787 7.521-5.393 9.244a31.22 31.22 0 01-10.527 2.914c-2.512.239-5.339.293-7.05 2.146-3.151 3.424.466 8.896-.195 13.502-.411 2.871-2.491 5.19-4.592 7.206a83.019 83.019 0 01-12.671 10.001c-3.682 2.363-7.57 4.443-10.83 7.347-3.26 2.904-5.891 6.838-6.108 11.205" fill="#52D2BC"/><path d="M418.653 221.629c.964-4.724 3.163-9.102 5.339-13.404 3.401-6.729 6.867-13.556 12-19.071 3.899-4.194 8.653-7.51 12.617-11.638a43.425 43.425 0 007.126-9.904c1.029-1.962 1.917-4.02 3.292-5.743 1.646-2.048 3.888-3.511 5.848-5.267a24.975 24.975 0 006.195-8.549" stroke="#00AD9F" stroke-miterlimit="10" stroke-linecap="round" stroke-linejoin="round"/><path d="M495.881 237.883c-1.332 5.137-3.314 10.219-6.714 14.293-2.35 2.807-5.274 5.028-8.469 6.838-1.646.942-3.379 1.766-5.123 2.503a61.469 61.469 0 01-21.41 4.746c-10.7.401-21.704-1.961-31.97 1.094-4.712 1.398-9.054 3.945-12.617 7.315a30.71 30.71 0 00-5.664 7.162l1.397-8.885c2.588-9.558 5.23-19.288 10.516-27.665 3.411-5.428 7.84-10.153 12.551-14.498 7.527-6.957 15.877-13.079 25.093-17.555 7.451-3.619 15.725-6.165 23.956-5.157 8.22.996 16.299 6.198 18.866 14.076 1.646 5.06.931 10.586-.412 15.733z" fill="#5193F4"/><path d="M412.307 266.187c7.862-11.638 19.634-20.588 32.955-25.031 8.296-2.774 17.079-3.825 25.483-6.252 8.404-2.428 16.797-6.545 21.725-13.784" stroke="#0B43A4" stroke-miterlimit="10" stroke-linecap="round" stroke-linejoin="round"/><path d="M417.484 351.542c.465-11.952 6.638-22.983 14.144-32.302 6.248-7.769 13.797-14.878 23.121-18.421 2.925-1.105 6.13-1.853 9.163-1.105 3.032.747 5.783 3.337 5.837 6.469.043 2.633-1.722 4.941-3.585 6.805-6.129 6.144-14.046 10.077-21.476 14.563-12.757 7.716-24.887 18.01-29.944 32.043" fill="#52D2BC"/><path d="M422.206 341.086c7.797-17.403 27.984-32.964 41.294-34.903" stroke="#00AD9F" stroke-miterlimit="10" stroke-linecap="round" stroke-linejoin="round"/><path d="M412.61 361.046c-.108-2.005 6.422-7.239 7.895-8.572 8.155-7.401 17.837-12.84 28.071-16.048 4.138-1.3 8.545-2.243 12.682-1.246 4.148.997 7.95 4.4 8.35 8.864.39 4.334-2.512 8.582-6.227 10.673-3.715 2.103-8.047 2.417-12.184 2.178-6.389-.368-12.671-1.961-19.082-1.918-6.422.055-15.433.705-19.505 6.069z" fill="#00AD9F"/><path d="M419.26 354.967c13.115-7.109 32.944-11.736 47.348-9.991" stroke="#00AD9F" stroke-miterlimit="10" stroke-linecap="round" stroke-linejoin="round"/><path opacity=".2" d="M255.446 151.314a22.924 22.924 0 01-1.841 5.982c-4.603-9.763-8.653-22.507-9.628-38.154-.26-4.237.921-8.593 3.173-12.245.228.25.423.521.618.781 3.238 4.432 4.906 9.828 6.129 15.203 2.123 9.308 3.076 18.995 1.549 28.433z" fill="#5275A0"/><path d="M300.813 150.762c9.79-3.479 19.97-6.253 28.872-11.627 2.697-1.626 5.285-3.511 7.202-6.004 1.906-2.492 3.087-5.678 2.664-8.798-.433-3.165-2.458-6.199-1.776-9.33.455-2.059 1.993-3.663 3.173-5.418 2.805-4.15 3.639-9.579 2.221-14.39-1.538-5.158-5.405-9.298-7.603-14.206a23.74 23.74 0 01-1.83-12.895c-8.22.108-15.715 4.605-23.794 6.1-6.184 1.149-12.606.52-18.736 1.93-11.165 2.567-20.306 12.406-22.038 23.74-5.177-.888-10.755.976-14.361 4.812-3.823 4.074-5.978 9.872-5.632 15.452 2.524 40.559 25.732 61.711 25.732 61.711s22.169-29.744 25.906-31.077z" fill="#7EE8D4"/><path d="M278.904 150.48c-1.018-10.002 2.48-19.895 6.487-29.116 3.909-8.984 8.415-17.793 14.458-25.508 6.043-7.716 13.721-14.326 22.786-18.053M287.622 83.947c-1.029 8.918-.304 19.667 2.014 28.336M291.304 109.086c10.18-6.534 25.84-10.5 37.916-9.806M266.406 110.755c12.26 5.169 12.758 23.2 13.093 28.326M282.835 127.616c9.379-6.729 22.927-8.756 32.901-6.242M308.426 79.309c-2.816 3.478-3.52 7.618-3.238 10.49M307.852 87.252c4.321-2.21 10.105-2.72 16.289-1.17" stroke="#00AD9F" stroke-miterlimit="10" stroke-linecap="round" stroke-linejoin="round"/><path d="M66.713 106.876c1.148-.065 9.01-5.884 12.032-7.846.855-.552 1.71-1.127 2.306-1.95.596-.824.878-1.95.444-2.872-.541-1.137-1.43-2.275-3.671-2.275-3.91.01-5.274 1.3-7.18 3.261-6.292 6.513-3.931 11.682-3.931 11.682zM101.942 130.357c3.422 1.539 7.072 3.067 10.798 2.59 1.44-.184 3.021-.845 3.498-2.21.411-1.171-.152-2.525-1.083-3.349-.932-.823-2.155-1.224-3.368-1.517-4.549-1.116-10.949-.498-15.455.78-.01 0 3.563 2.785 5.61 3.706zM124.469 79.797c-1.527-.965-3.217-2.254-3.206-4.064 0-1.81 1.884-3.186 3.693-3.197 1.809-.01 3.487.976 4.852 2.178 5.751 5.06 5.036 10.826 5.036 10.826s-8.675-4.67-10.375-5.743zM129.006 64.377c-1.343-.574-2.718-1.268-3.509-2.503-.379-.596-.595-1.355-.368-2.027.39-1.116 1.094-2.123 3.921-1.614 8.934 1.625 10.884 7.748 10.884 7.748s-8.556-.585-10.928-1.604zM155.182 77.922c3.585-.314 7.289-2.091 9.542-4.898.855-1.062 1.635-2.221 1.916-3.554.282-1.333-.021-2.85-1.05-3.739-1.256-1.083-3.249-.91-4.624 0-1.387.91-2.275 2.406-2.99 3.89-.953 1.994-2.794 8.3-2.794 8.3z" fill="#4A49CA"/><path d="M91.188 208.669l-26.035-22.961c-4.624-4.075-9.346-8.279-12.27-13.708-6.293-11.67-2.665-26.83 5.837-37.005 8.502-10.175 20.956-16.178 33.475-20.545 12.509-4.367 25.537-7.433 37.461-13.22 7.484-3.63 15-9.026 17.057-17.088 1.235-4.844.195-10.23-2.75-14.26-2.946-4.042-7.755-6.665-12.747-6.957M161.247 69.6c-2.372 7.282-11.61 11.714-15.822 18.031" stroke="#0B43A4" stroke-miterlimit="10" stroke-linecap="round" stroke-linejoin="round"/><path d="M128.086 77.976c1.819 1.918 3.996 3.511 5.588 5.624 3.357 4.475 3.628 11.746-1.332 16.254M81.355 118.763c7.656 5.906 17.717 9.839 27.378 10.207M63.832 129.512c-3.53-10.402.314-22.864 9.086-29.463" stroke="#0B43A4" stroke-miterlimit="10" stroke-linecap="round" stroke-linejoin="round"/><path d="M343.688 85.561c-.411-1.29-.39-2.871.553-3.836.758-.758 2.014-1.105 3-.671 7.613 3.348 6.79 15.235 6.79 15.235s-7.213-1.04-10.343-10.728zM343.504 107.829c-4.927 8.908 12.574 8.225 18.888 2.98 0 0-14.642-10.651-18.888-2.98zM365.64 86.244c-1.191-1.625-1.613-4.053-.314-5.602.964-1.149 2.643-1.506 4.116-1.225 1.473.282 3.682 1.647 4.624 2.818 5.762 7.173 3.054 14.184 3.054 14.184s-9.541-7.51-11.48-10.175zM435.147 108.295c-.422-1.387-.325-3.077.747-4.052.683-.618 1.646-.835 2.556-.77.91.065 1.787.401 2.621.781 1.787.812 3.173 2.243 4.029 4.009 2.166 4.464.693 9.98.693 9.98s-9.585-6.491-10.646-9.948zM413.282 124.636c-3.098-2.72-7.83-3.522-11.61-1.864-.964.423-1.874 1.019-2.48 1.864-1.386 1.918-.899 4.714.541 6.588 1.43 1.875 3.607 3.013 5.762 3.988 3.899 1.766 9.942 2.124 14.09 3.186-.011-.011-.022-8.246-6.303-13.762z" fill="#4A49CA"/><path d="M349.147 87.48c2.577 8.43 9.866 14.801 17.977 18.236 8.112 3.446 17.047 4.356 25.851 4.92 8.794.574 17.697.856 26.198 3.164 8.285 2.254 16.548 6.935 20.1 14.759 4.332 9.525.499 20.902-5.588 29.42-6.075 8.506-14.263 15.365-20.143 24.012-2.697 3.966-4.961 8.626-4.408 13.394.725 6.36 6.086 11.041 11.057 15.072M369.42 84.38c5.827 6.448 10.484 16.536 11.621 25.162" stroke="#0B43A4" stroke-miterlimit="10" stroke-linecap="round" stroke-linejoin="round"/><path d="M349.818 109.303c3.336.889 6.715 1.777 10.159 1.788 3.444.011 7.44-1.907 9.92-4.302M440.854 108.816c3.12 3.012 5.026 7.271 5.188 11.605.162 4.345-2.242 9.601-5.133 12.841M408.181 128.515c6.238 5.743 11.664 10.392 18.595 15.268 3.162 2.233 9.443 5.082 12.238 4.346" stroke="#0B43A4" stroke-miterlimit="10" stroke-linecap="round" stroke-linejoin="round"/><path opacity=".2" d="M480.697 259.014c-1.646.942-3.379 1.766-5.122 2.503a61.474 61.474 0 01-21.411 4.746c-10.7.401-21.703-1.961-31.97 1.094-4.711 1.398-9.054 3.945-12.617 7.315-.357.173-.715.368-1.072.574-.856-7.249 17.209-16.698 22.7-19.158 9.909-4.443 20.955-6.415 31.785-5.548 4.744.379 9.607 1.311 13.516 4.009 1.679 1.16 3.152 2.709 4.191 4.465z" fill="#5275A0"/><path d="M462.98 254.874c4.744.38 9.606 1.311 13.516 4.01 3.91 2.698 6.671 7.52 5.761 12.19-1.061 5.44-6.682 8.983-12.183 9.644-5.502.672-10.993-.845-16.418-1.961a116.814 116.814 0 00-36.584-1.669c-3.043.336-5.924.943-8.577 2.503-.856-7.249 17.219-16.698 22.71-19.158 9.91-4.453 20.956-6.426 31.775-5.559z" fill="#52D2BC"/><path d="M413.195 275.018c8.967-7.888 32.002-13.241 48.291-11.518 4.905.52 9.855 1.983 13.624 5.169" stroke="#00AD9F" stroke-miterlimit="10" stroke-linecap="round" stroke-linejoin="round"/><path d="M396.441 186.38l87.603-.185c10.278-.021 18.628 8.301 18.649 18.584.022 10.284-8.295 18.638-18.573 18.66l-59.922.119M131.389 250.735l-61.265.13c-5.805.011-10.494 4.724-10.483 10.533.01 5.808 4.721 10.5 10.526 10.489l17.859-.033" stroke="#0B43A4" stroke-miterlimit="10" stroke-linecap="round" stroke-linejoin="round" stroke-dasharray="4 4"/><path d="M33.605 298.197c-20.988.043-21.421 31.37 5.275 31.305 26.706-.054 377.022-.78 393.538-.813 16.516-.032 18.259-25.822-2.155-25.779-40.645.087-41.988-19.309-19.429-19.353" stroke="#C8DBFB" stroke-miterlimit="10" stroke-linecap="round" stroke-linejoin="round" stroke-dasharray="4 4"/><path d="M38.511 297.33a5.2 5.2 0 01-4.245 5.992 5.197 5.197 0 01-5.99-4.248 5.2 5.2 0 014.246-5.992c2.827-.477 5.513 1.42 5.99 4.248z" fill="#5193F4"/><path d="M420.906 283.698a5.2 5.2 0 01-4.246 5.992 5.197 5.197 0 01-5.989-4.247 5.2 5.2 0 014.246-5.993 5.207 5.207 0 015.989 4.248z" fill="#0B43A4"/><path opacity=".2" d="M426.548 374.266l-325.862.671c-4.343.011-7.884-3.51-7.884-7.856l-.444-215.994c-.01-4.346 3.509-7.889 7.852-7.889l325.862-.672c4.343-.011 7.884 3.511 7.884 7.856l.444 215.995a7.867 7.867 0 01-7.852 7.889z" fill="#5275A0"/><path d="M420.169 370.136l-325.862.672c-4.343.011-7.884-3.511-7.884-7.856l-.444-215.995c-.01-4.345 3.509-7.888 7.852-7.888l325.862-.672c4.343-.011 7.884 3.511 7.884 7.856l.444 215.995c.011 4.345-3.509 7.877-7.852 7.888z" fill="#fff"/><path d="M419.163 138.387l-324.465.672c-4.733.011-8.556 3.857-8.556 8.593l.01 7.455 341.61-.704-.011-7.456c-.011-4.735-3.855-8.571-8.588-8.56z" fill="#0056EC"/><path d="M95.087 370.809l49.027-.098-.444-215.723-57.594.119.423 207.163c.01 4.725 3.855 8.55 8.588 8.539z" fill="#C8DBFB"/><path d="M419.791 140.554c3.141 0 5.696 2.557 5.707 5.7l.444 215.994a5.663 5.663 0 01-1.668 4.042 5.621 5.621 0 01-4.028 1.68l-325.873.672c-3.141 0-5.697-2.558-5.708-5.7l-.444-215.995c0-1.527.585-2.958 1.668-4.041a5.623 5.623 0 014.029-1.68l325.851-.672h.022zm0-2.167h-.022l-325.862.672c-4.343.011-7.863 3.543-7.852 7.888l.444 215.995a7.871 7.871 0 007.874 7.856h.021l325.863-.672c4.342-.011 7.862-3.543 7.851-7.888l-.444-215.995a7.87 7.87 0 00-7.873-7.856z" fill="#0056EC"/><path d="M135.84 354.317l-37.785.075a3.014 3.014 0 01-3.022-3.012v-.379a3.015 3.015 0 013.01-3.024l37.786-.075a3.014 3.014 0 013.022 3.012v.379a3.008 3.008 0 01-3.011 3.024zM131.302 207.965l-32.165.065c-3.054.011-5.534-2.47-5.545-5.526l-.065-32.183c-.01-3.056 2.47-5.537 5.524-5.548l32.165-.065c3.054-.011 5.534 2.47 5.545 5.526l.064 32.183c0 3.067-2.469 5.548-5.523 5.548z" fill="#fff"/><path d="M269.005 304.373l-112.068.228a3.951 3.951 0 01-3.953-3.934v-.487a3.95 3.95 0 013.931-3.955l112.068-.228a3.95 3.95 0 013.953 3.934v.487a3.936 3.936 0 01-3.931 3.955zM262.529 176.616l-88.557.185a3.951 3.951 0 01-3.953-3.934v-.487a3.952 3.952 0 013.932-3.956l88.556-.184a3.951 3.951 0 013.953 3.934v.487c0 2.189-1.755 3.955-3.931 3.955zM402.527 266.241l-118.078.25a3.95 3.95 0 01-3.953-3.934v-.488a3.95 3.95 0 013.931-3.955l118.079-.238a3.95 3.95 0 013.953 3.933v.488a3.949 3.949 0 01-3.932 3.944zM269.038 321.7l-112.069.228a3.951 3.951 0 01-3.953-3.934v-.487a3.952 3.952 0 013.932-3.956l112.068-.227a3.95 3.95 0 013.953 3.933v.488c.011 2.178-1.755 3.944-3.931 3.955zM269.07 339.016l-112.068.228a3.951 3.951 0 01-3.953-3.934v-.488a3.95 3.95 0 013.931-3.955l112.068-.227a3.95 3.95 0 013.953 3.933v.488a3.936 3.936 0 01-3.931 3.955zM400.123 350.307l-112.945.239a6.503 6.503 0 01-6.52-6.502l-.097-48.535a6.502 6.502 0 016.498-6.523l112.945-.238a6.502 6.502 0 016.52 6.501l.097 48.535a6.502 6.502 0 01-6.498 6.523zM104.877 146.904a2.757 2.757 0 01-2.751 2.763 2.764 2.764 0 01-2.761-2.752 2.757 2.757 0 012.751-2.763 2.764 2.764 0 012.761 2.752zM113.812 149.657a2.764 2.764 0 000-5.527 2.763 2.763 0 000 5.527zM128.259 146.861a2.758 2.758 0 01-2.751 2.763 2.758 2.758 0 01-.011-5.516c1.517-.01 2.751 1.225 2.762 2.753zM165.685 173.457a7.982 7.982 0 10-15.883-1.592 7.982 7.982 0 1015.883 1.592z" fill="#C8DBFB"/><path d="M133.544 214.716l-35.36.076a1.496 1.496 0 01-1.494-1.485v-.184c0-.823.66-1.484 1.484-1.495l35.359-.076c.824 0 1.484.661 1.495 1.484v.185c0 .823-.661 1.495-1.484 1.495zM133.555 221.478l-35.36.075a1.495 1.495 0 01-1.494-1.484v-.184c0-.824.66-1.485 1.483-1.496l35.36-.076c.823 0 1.484.661 1.495 1.485v.184c0 .824-.661 1.485-1.484 1.496z" fill="#fff"/><path d="M174.037 235.76l-9.996.097.076 41.914-8.631.021c-3.044.011-5.513-2.459-5.524-5.504l-.162-77.51a5.56 5.56 0 015.556-5.581l18.573-.043.108 46.606z" fill="#C8DBFB"/><path d="M238.898 189.024v1.083c2.989 0 5.426 2.428 5.426 5.418l.151 75.571a5.44 5.44 0 01-5.415 5.45l-82.6.174c-2.989 0-5.426-2.428-5.426-5.418l-.151-75.571a5.44 5.44 0 015.415-5.45l82.589-.174.011-1.083zm0 0h-.011l-82.589.173c-3.596.011-6.509 2.926-6.498 6.523l.151 75.571c.011 3.597 2.925 6.501 6.509 6.501h.011l82.589-.173c3.596-.011 6.509-2.926 6.498-6.523l-.151-75.571c0-3.597-2.914-6.512-6.509-6.501zM376.806 251.212L266.644 226.3c-3.509-.791-5.707-4.281-4.917-7.791l12.39-54.863a6.511 6.511 0 017.787-4.92l110.162 24.912c3.509.791 5.707 4.28 4.917 7.791l-12.39 54.863c-.791 3.511-4.278 5.722-7.787 4.92z" fill="#C8DBFB"/><path d="M163.608 400.424l-15.411.032-3.78-19.645 22.884-.044-3.693 19.657z" fill="#0056EC"/><path d="M148.685 380.8c0 1.603-.304 4.291.769 4.334 1.072.043.628-2.557 1.841-2.481.779.043-.358 8.538 2.577 8.744 2.015.141 1.646-4.161 1.852-6.859.141-1.82 2.469-1.463 2.491-.26.022 1.355-.065 2.254 0 3.793.108 2.568 4.05 1.885 3.91-1.539-.141-3.424-.011-5.743-.011-5.743l-13.429.011z" fill="#C8DBFB"/><path d="M145.002 392.665c-.314 0-.617-.032-.909-.097-1.138-.249-1.928-.845-2.372-1.777-1.571-3.338 2.567-9.579 2.729-9.861l.217 1.127c-.033.065-3.639 5.429-2.221 8.43.336.716.932 1.16 1.831 1.355.249.054.509.076.769.076 5.555-.011 15.042-10.359 15.151-10.479.39-.466 1.115-.021.855.369-.444.498-10.082 10.847-16.05 10.857z" fill="#0C2340"/><path opacity=".2" d="M306.975 123.964c-21.909-.834-52.071 15.377-41.371 55.015-.227 3.348 1.777 5.743 3.91 5.093 2.134-.65.249-7.011.249-7.011 3.65-29.474 10.473-34.567 22.05-34.459l27.172-.054c6.715.986 18.92 5.689 20.75 29.279l6.769 1.246c.531-17.045-3.585-47.733-39.529-49.109z" fill="#5275A0"/><path d="M306.975 120.508c-21.909-.835-52.071 15.376-41.371 55.014l4.159-1.918c3.65-29.474 10.473-34.567 22.05-34.458l27.172-.055c6.715.986 19.245 6.957 21.075 30.547l6.433-.011c.542-17.056-3.574-47.743-39.518-49.119z" fill="#EF832B"/><path d="M302.491 121.158l-3.249 7.151s.39 4.031 4.343 3.945c3.953-.087 4.484-1.907 4.484-1.907l.519-8.214-6.097-.975z" fill="#FFB9A3"/><path d="M319.223 115.187c-3.703 6.556-5.35 8.604-10.201 9.59-6.282 1.279-13.321-2.958-10.051-13.404 2.665-8.517 6.715-7.206 10.668-6.881 3.953.314 13.592 3.608 9.584 10.695z" fill="#FFB9A3"/><path d="M304.473 110.007c-.985-.509-2.253-.075-3.021.726-.791.835-1.17 2.07-.834 3.165-1.517.021-2.849 1.506-2.708 3.023-1.04-2.417-.476-4.941-.682-7.423-.206-2.481.065-5.169 1.668-7.065.66-.78 1.505-1.376 2.404-1.853 3.411-1.82 7.711-1.875 11.176-.162.715.357 2.513 1.484 5.025.877 4.787-1.159 7.581 2.081 4.711 5.115.921.336 1.939.748 2.351 1.636.108.228.162.509.021.715-.097.141-.27.217-.444.271a5.231 5.231 0 01-2.523.195c.325.271 2.101.379 2.632 1.42 1.429 2.752-4.224 1.365-5.091 1.083.986.185 3.564 2.243 2.74 3.663-.162.282-3.649 2.308-7.31-1.951-.855-.986-1.917-1.907-3.173-2.243-.985-.26-2.025.098-2.989.466-.704.26-2.491 1.355-3 .705-.531-.694.195-1.788-.953-2.363z" fill="#0C2340"/><path d="M340.764 169.627c-.974 3.349-1.949 3.674-.78 4.205 1.181.531 2.134-1.344 2.134-1.344l5.437 1.084s-1.224-3.533-2.08-3.956c-.855-.422-4.711.011-4.711.011zM269.763 173.604c.715 1.766.91 1.777 1.895 3.901 1.896 4.053-2.534 10.457-5.285 3.468-.758-1.918-.769-5.44-.769-5.44l4.159-1.929z" fill="#FFB9A3"/><path d="M312.217 100.992c3.714.206 8.285-2.417 11.198.942.271.315.812-.097.574-.444-2.783-3.998-7.949-1.018-11.761-1.127-.412 0-.401.607-.011.629zM313.711 98.944c-2.534.444-4.981-.759-7.527-.358-2.068.325-3.909 1.387-5.469 2.742-.4.346.119 1.029.574.737 2.188-1.442 4.289-2.688 7.018-2.482 1.982.141 3.661.737 5.632.141.498-.152.281-.867-.228-.78zM299.264 102.411c-1.787 1.116-2.816 2.601-3.032 4.736-.152 1.538-.195 5.06 1.353 5.927.369.206.758-.282.455-.596-.996-1.008-1.083-3.728-1.007-5.006.108-1.962.931-3.457 2.491-4.627.249-.184.022-.607-.26-.434zM326.74 108.512c-.921-1.593-3.271-3.002-5.08-1.994-.281.163-.151.596.163.596.79.011 1.516-.087 2.285.152.877.271 1.614.78 2.133 1.528.217.303.683.043.499-.282z" fill="#0C2340"/><path d="M206.224 273.816c11.49 4.226 21.465 17.402 19.169 26.992-2.588 10.825-10.05 15.496-10.05 15.496l-2.35-4.346s5.967-9.329 5.447-13.74c-.834-7.054-9.736-11.778-9.736-11.778l-2.48-12.624z" fill="#0B43A4"/><path d="M177.947 395.959s-7.05 2.85-8.816 4.465l13.971-.033-.011-4.443-5.144.011zM208.823 395.688s2.004 2.319 2.372 4.649l-9.53.022c.162-1.604.844-3.153 1.776-4.66l5.382-.011z" fill="#0C2340"/><path d="M209.408 395.894l-6.509.011c.13-7.672-1.451-33.819-2.978-53.367-.899-11.465-1.787-20.675-2.307-22.539l3.487-.77 13.159-2.925c2.252 10.294-2.946 57.561-4.852 79.59z" fill="#047F76"/><path d="M185.485 319.587c-5.08 7.997-6.39 65.818-8.513 76.535l6.173.347s7.094-36.453 22.191-77.435l-19.851.553z" fill="#009790"/><path opacity=".2" d="M207.935 319.034a529.43 529.43 0 00-8.014 23.504c-.899-11.465-1.787-20.675-2.307-22.539l3.487-.77 6.834-.195z" fill="#5275A0"/><path d="M185.485 319.587c-5.08 7.997-6.39 65.818-8.513 76.535l6.173.347s7.094-36.453 22.191-77.435l-19.851.553z" fill="#009790"/><path d="M189.362 255.037s-3.953 15.062 5.924 15.051l-.585 3.847 7.494.823-1.624-5.363s1.483-9.471 1.581-11.183c.184-3.197-8.762-8.821-12.79-3.175z" fill="#FFB9A3"/><path d="M164.95 238.152l-2.913.006.024 12.299 2.913-.006-.024-12.299z" fill="#0C2340"/><path d="M171.839 238.133l-16.7.032a2.118 2.118 0 01-2.123-2.113v-.433c0-1.171.943-2.124 2.112-2.124l16.7-.033c1.17 0 2.123.943 2.123 2.113v.434a2.112 2.112 0 01-2.112 2.124z" fill="#0056EC"/><path d="M161.258 253.661c-.076-2.785-2.383-2.059-1.115-6.61.779-2.818 6.595.455 5.869 2.405-.725 1.951-1.559 5.039-1.559 5.039l-3.195-.834z" fill="#FFB9A3"/><path d="M195.351 273.057c-14.762.975-15.736 5.96-22.343 5.18-9.779-1.149-8.068-19.321-6.855-25.833l-5.837.011s-10.527 41.382 22.721 33.732c-1.278 7.249 6.996 19.093-1.029 33.462 12.617 3.435 24.4 4.269 34.483-.065-1.766-2.384 3.617-26.429-6.921-43.734-2.057-3.392-13.136-2.829-14.219-2.753z" fill="#0056EC"/><path d="M195.351 273.057c-14.762.975-15.736 5.96-22.343 5.18-9.779-1.149-8.068-19.321-6.855-25.833l-5.837.011s-10.527 41.382 22.721 33.732c-1.278 7.249 6.996 19.093-1.029 33.462 12.617 3.435 24.4 4.269 34.483-.065-1.766-2.384 3.617-26.429-6.921-43.734-2.057-3.392-13.136-2.829-14.219-2.753z" fill="#0056EC"/><path d="M193.315 257.93c.964.249 2.079.433 2.599 1.246.336.531.314 1.192.281 1.81.174-.65.899-1.116 1.582-1.03.693.076 1.278.694 1.288 1.366.011.314-.097.617-.216.91-.293.737-.661 1.43-1.094 2.091 1.202.445 2.22 3.977 2.816 5.072 2.025-.51 6.541-2.254 6.931-9.439.184-3.348-.834-7.357-4.462-9.579-2.567-1.571-6.812-1.593-9.747-.845-2.383.607-6.173 2.991-4.408 5.765.888 1.398 2.838 2.221 4.43 2.633z" fill="#EF832B"/><path d="M205.964 253.357c1.375-.455 3.119-.216 3.942.932.639.9.585 2.07.791 3.143.097.52.281 1.04.682 1.397.476.423 1.169.531 1.819.564 1.592.087 3.195-.119 4.765.152 1.571.271 3.174 1.148 3.618 2.611.249.813.108 1.701.411 2.492.444 1.192 1.711 1.875 2.816 2.569 2.35 1.473 4.354 3.467 5.794 5.775.921 1.463 1.624 3.088 1.733 4.79.108 1.701 1.343 3.955 1.007 5.624-.357 1.809-2.134 4.258-5.642 5.385-6.065 1.951-7.993 2.796-13.809-.661-.704-.412-2.068-1.831-2.707-2.341-.498-.4-.812-.975-.986-1.571-.487-1.668.076-3.467.943-4.984.866-1.517 2.046-2.861 2.934-4.367.531-.91.964-1.918.921-2.958-.022-.391-.119-.791-.401-1.073-.249-.239-.595-.358-.942-.423-1.278-.249-2.686.011-3.834-.563-1.126-.553-1.743-1.918-1.397-3.089.228-.78.823-1.441.986-2.232.238-1.148-.477-2.319-1.473-2.991-.996-.671-2.22-.931-3.422-1.126-.596-.098-1.213-.196-1.69-.542-.595-.423-.866-1.171-.855-1.875.043-2.254 1.873-3.933 3.996-4.638z" fill="#EF832B"/><path d="M204.87 259.414c7.3 1.583-1.917 8.507 1.95 11.823 1.104.942 2.382.65 3.671.823 4.96.683 2.242 4.053 1.906 6.697-.054.401.606.477.693.097.422-1.82 2.09-4.052 1.235-5.992-.758-1.712-2.643-1.506-4.191-1.56-1.939-.055-4.073 0-3.347-3.847.163-.856.845-1.723 1.181-2.536.379-.932.639-1.853.433-2.871-.358-1.723-1.787-2.731-3.433-3.002-.239-.054-.347.314-.098.368zM189.827 250.464c5.632-2.861 11.242-2.286 15.996 1.907.325.282.758-.152.477-.477-4.17-4.702-11.588-5.526-16.624-1.701-.163.13-.033.369.151.271z" fill="#EF832B"/><path d="M378.983 268.138l-2.437 4.919 5.957 2.438.639-5.656-4.159-1.701z" fill="#FFB9A3"/><path d="M382.579 252.154c-13.527 5.895-7.982 20.177.249 18.498 4.007-.813 6.032-13.73 6.032-13.73l-6.281-4.768z" fill="#FFB9A3"/><path d="M387.073 250.128c-.444-.823-.866-1.712-1.602-2.297-.737-.585-1.896-.78-2.578-.141-.91.845-.379 2.427.541 3.262-.79.097-1.732-.456-2.317.097-.444.412-.293 1.149-.033 1.701a7.497 7.497 0 002.773 3.175c-.682.39-1.484 1.149-1.072 1.821.119.184.303.314.422.498.26.434.011.997-.26 1.431a26.04 26.04 0 01-1.375 2.048c.465-.64 1.603-.38 1.938.336.336.715.044 1.592-.487 2.178-.292.325-.661.596-1.094.693-.368.087-2.014 5.158-.736 6.155 1.581 1.224 6.953.162 7.732-1.225.78.846 1.917 1.485 3.043 1.257 1.127-.227 1.982-1.614 1.376-2.589 1.213.444 2.697.054 3.53-.943.834-.997.953-2.525.293-3.641.66-.195.801-1.094.628-1.766-.347-1.355-1.451-2.503-2.805-2.883.682.011 1.224-.682 1.256-1.365.033-.683-.325-1.333-.758-1.864-1.267-1.571-2.772-1.983-4.646-2.221-1.884-.228-2.924-2.157-3.769-3.717z" fill="#4A49CA"/><path d="M374.402 395.027s-7.916 3.804-8.978 4.985c0 0 15.574.704 16.798-.032 1.223-.737-2.491-4.963-2.491-4.963l-5.329.01zM403.849 390.725s-6.953 5.364-7.754 6.74c0 0 16.418-2.438 16.418-3.51 0-1.073-3.466-4.346-3.466-4.346l-5.198 1.116z" fill="#0C2340"/><path d="M382.048 321.592c-.292 1.614-11.133 44.417 19.884 70.087l8.978-2.059s-10.451-9.806-15.379-27.469c-4.657-16.698-.964-18.335 1.831-27.524 3.097-10.175.79-17.565.79-17.565l-16.104 4.53z" fill="#D8742A"/><path d="M367.233 321.462c-4.917 11.757-13.354 51.818 5.036 74.367l9.184-.021s-7.235-7.932-8.047-26.343c-.812-18.41 3.866-26.494 7.169-32.562 3.303-6.079 6.357-16.395 6.357-16.395l-19.699.954z" fill="#EF832B"/><path d="M360.756 248.589c-2.436 8.604-3.238 24.511 8.978 30.916l8.177-1.994s-14.75-7.737-11.588-27.285l-5.567-1.637z" fill="#0B43A4"/><path d="M338.219 244.19l6.347-.78s-.769 26.678 30.031 28.932c23.512 1.712 25.353 45.858 25.353 45.858-7.581 5.104-20.295 6.653-36.594 5.483 0 0 1.039-31.49-1.549-40.115 0-.011-25.591-8.062-23.588-39.378z" fill="#0056EC"/><path d="M330.454 239.346c-1.072 1.246 3.412 2.828 7.765 4.844l5.578-.683s.065-1.116 0-2.275c-.065-1.16-.65-1.821-1.311-.824-.66.997-3.476 1.333-4.808.423-1.343-.921-6.152-2.731-7.224-1.485zM360.756 248.589c-2.046-2.004-1.494-1.885-1.494-1.885l6.227 1.409s1.365-3.045 2.534-3.121c1.159-.087-.877 2.091-.411 2.904.466.813-1.278 2.34-1.278 2.34l-5.578-1.647z" fill="#FFB9A3"/><path d="M390.571 253.065c1.278.325 2.578.455 3.639 1.332 1.051.867 1.527 2.352.769 3.555-.357.563.487 1.007.867.509.963-1.268.703-3.002-.271-4.204-1.127-1.377-3.217-1.951-4.928-1.767-.303.033-.411.488-.076.575zM396.203 264.627c.845.498 1.549 1.3 1.191 2.351-.336.964-1.31 1.539-2.101 2.091-.379.271-.054.846.368.629 1.17-.618 2.405-1.485 2.589-2.915.162-1.246-.672-2.189-1.711-2.752-.379-.195-.704.368-.336.596zM381.983 271.085c2.87 1.788 6.931 1.495 9.303-1.019.292-.314-.108-.899-.477-.617-2.599 1.928-5.544 2.546-8.588 1.235-.27-.119-.498.238-.238.401z" fill="#4A49CA"/><path d="M396.582 254.95c1.646 1.571 0 3.717-1.062 5.06-.238.293.13.694.423.423.942-.878 1.884-1.853 2.014-3.197.098-1.018-.325-1.983-1.224-2.481-.119-.065-.26.098-.151.195z" fill="#4A49CA"/><path d="M213.382 56.998l-2.534-6.21 24.508-9.319-21.974 15.529z" fill="#0B43A4"/><path d="M214.617 53.162l20.739-11.693-14.436 14.672-6.303-2.98zM205.238 48.253l30.118-6.784-24.508 9.32-5.61-2.536z" fill="#5193F4"/><path d="M214.617 53.162l-1.235 3.836 3.748-2.644-2.513-1.192z" fill="#0056EC"/><path d="M210.502 56.163c-6.401-1.083-15.086 5.396-11.35 12.136 1.267 2.298 7.83 1.3 7.343-1.235-.239-1.213-1.722-1.734-2.946-1.593-7.148.824-7.44 6.816-7.115 8.344 1.635 7.889 13.721 5.223 17.782 4.107" stroke="#C8DBFB" stroke-miterlimit="10" stroke-linecap="round" stroke-linejoin="round" stroke-dasharray="4 4"/></g><defs><clipPath id="clip0"><path fill="#fff" d="M0 0h514v439H0z"/></clipPath></defs></svg>