<svg width="514" height="439" viewBox="0 0 514 439" fill="none" xmlns="http://www.w3.org/2000/svg">
<g clip-path="url(#clip0)">
<path d="M107.996 55.8165C124.912 56.9543 131.995 45.4031 139.933 30.5577C161.691 -10.0774 210.155 -6.16557 226.411 18.8548C237.923 36.5826 262.756 32.9308 282.835 25.9958C302.599 19.1691 336.28 12.6133 363.117 20.7728C386.553 27.9029 396.159 53.606 417.527 52.0239C464.128 48.578 487.618 94.5987 479.171 114.678C473.658 127.779 470.929 142.44 475.402 155.92C480.329 170.765 491.603 182.522 500.711 195.287C509.819 208.052 517.151 224.013 512.624 238.989C508.747 251.808 497.192 260.672 490.022 271.995C467.745 307.18 489.784 361.111 460.099 390.444C438.851 411.433 404.217 406.59 374.488 410.599C349.699 413.936 326.371 424.361 301.689 428.435C251.709 436.703 201.242 418.498 150.579 417.978C132.731 417.794 114.548 419.788 97.2634 415.388C74.1956 409.515 54.5718 391.755 46.5685 369.53C35.5219 338.864 45.9836 303.366 33.5184 273.241C23.3599 248.698 -1.49484 228.727 0.0755021 202.244C1.0502 185.751 12.3025 171.968 20.0459 157.339C31.5473 135.613 16.3096 49.6833 107.996 55.8165ZM255.478 16.0049C251.027 16.0049 247.431 18.7681 247.431 22.1706C247.431 25.5732 251.049 28.0438 255.478 28.3363C269.936 29.2899 269.936 23.4493 269.936 20.0359C269.936 14.5963 259.918 16.0049 255.478 16.0049ZM402.3 42.3148C406.166 45.5114 411.094 47.4186 416.119 47.6787C417.462 47.7437 418.924 47.657 419.952 46.8118C421.23 45.7607 421.371 43.6043 420.234 42.4015C419.519 41.643 418.48 41.3071 417.505 40.9061C415.848 40.2343 414.234 39.2699 413.292 37.7637C413.021 37.3302 412.783 36.821 412.339 36.5717C409.556 35.0005 397.21 38.1104 402.3 42.3148ZM426.927 47.7653C428.205 48.2096 429.591 47.7979 430.88 47.3861C431.703 47.1152 432.71 46.53 432.494 45.7065C432.385 45.3056 432.017 45.0455 431.649 44.8505C429.959 43.9511 427.772 43.2792 426.082 44.4387C424.382 45.5873 425.66 47.3319 426.927 47.7653ZM485.723 164.003C485.939 165.921 487.131 167.579 488.268 169.14C490.477 172.152 492.719 175.208 495.632 177.559C496.867 178.556 498.296 179.445 499.888 179.499C501.339 179.553 502.726 178.892 503.895 178.047C506.754 175.999 508.682 172.716 509.083 169.237C509.624 164.469 507.404 159.821 504.827 155.757C503.224 153.243 501.361 150.729 498.697 149.386C494.213 147.121 491.257 149.093 490.001 153.07C488.863 156.732 485.257 159.929 485.723 164.003ZM8.79361 275.073C6.43268 277.153 8.56618 283.243 9.25929 287.263C9.46506 288.466 9.74664 289.712 10.5047 290.677C11.5444 291.988 13.2772 292.53 14.8909 293.006C17.7608 293.841 21.248 294.545 23.4465 292.53C25.071 291.034 25.3093 288.585 25.2984 286.385C25.2984 284.37 25.1901 282.365 24.9735 280.361C24.8761 279.396 24.7353 278.41 24.2155 277.587C23.5548 276.536 22.3852 275.929 21.248 275.441C17.1435 273.707 11.1545 273.003 8.79361 275.073ZM153.07 427.611C151.673 427.893 150.005 428.5 149.799 429.898C149.637 431.057 150.601 432.043 151.543 432.737C159.243 438.491 169.618 438.859 179.257 438.989C180.383 439 181.553 439.011 182.582 438.578C184.639 437.711 185.636 434.991 184.672 432.986C184.325 432.249 183.773 431.632 183.188 431.068C175.456 423.515 162.72 425.683 153.07 427.611ZM345.475 423.721C336.779 430.082 345.572 435.771 356.554 431.556C362.467 429.28 368.142 427.037 374.207 425.52C376.167 425.032 388.004 422.464 388.004 419.81C388.004 412.755 374.672 414.424 366.279 415.594C359.511 416.537 352.644 418.477 345.475 423.721Z" fill="#ECF3FF"/>
<path d="M182.062 405.332C205.18 405.332 223.92 403.581 223.92 401.421C223.92 399.26 205.18 397.509 182.062 397.509C158.945 397.509 140.205 399.26 140.205 401.421C140.205 403.581 158.945 405.332 182.062 405.332Z" fill="#C8DBFB"/>
<path d="M397.091 405.332C420.208 405.332 438.949 403.581 438.949 401.421C438.949 399.26 420.208 397.509 397.091 397.509C373.973 397.509 355.233 399.26 355.233 401.421C355.233 403.581 373.973 405.332 397.091 405.332Z" fill="#C8DBFB"/>
<path d="M485.528 125.947C485.409 125.221 485.279 124.506 485.138 123.812" stroke="#C8DBFB" stroke-linecap="round" stroke-linejoin="round"/>
<path d="M484.109 119.619C476.647 94.1759 452.832 96.6357 431.313 96.679C408.148 96.7223 49.5469 97.47 49.5469 97.47C13.5049 97.5459 17.003 149.602 45.215 149.537C61.4382 149.505 67.6113 179.986 39.5617 180.041C22.732 180.073 22.1905 201.42 33.5078 205.7" stroke="#C8DBFB" stroke-linecap="round" stroke-linejoin="round" stroke-dasharray="3.99 3.99"/>
<path d="M35.5872 206.253C36.2694 206.372 36.9951 206.437 37.7532 206.426" stroke="#C8DBFB" stroke-linecap="round" stroke-linejoin="round"/>
<path d="M42.1716 205.44C42.6482 208.268 40.7529 210.945 37.9263 211.432C35.0997 211.909 32.4247 210.013 31.9373 207.185C31.4608 204.357 33.3561 201.68 36.1827 201.192C39.0093 200.716 41.6951 202.623 42.1716 205.44Z" fill="#5193F4"/>
<path d="M490.629 128.288C490.12 131.105 487.412 132.98 484.597 132.459C481.781 131.95 479.907 129.241 480.427 126.424C480.936 123.606 483.643 121.732 486.459 122.252C489.275 122.761 491.138 125.459 490.629 128.288Z" fill="#5193F4"/>
<path d="M95.0436 167.536C94.2964 171.751 93.2025 175.869 91.8705 179.932C89.0005 188.699 85.0368 197.14 81.0297 205.473C78.9395 209.829 70.4597 219.906 65.9111 221.824C66.4417 210.457 66.4851 197.183 65.1638 185.708C63.8967 174.655 67.8713 166.279 63.5393 156.028C62.987 154.717 62.413 153.406 61.839 152.095C59.6839 147.218 57.5504 142.32 56.8789 137.065C56.0125 130.401 58.081 122.805 63.8426 119.337C67.9904 116.845 73.3946 116.975 77.824 118.936C82.2535 120.898 85.8057 124.484 88.5023 128.504C96.0508 139.731 97.4154 154.229 95.0436 167.536Z" fill="#5193F4"/>
<path d="M74.9 130.726C83.3799 142.71 84.1163 156.667 84.8527 171.328C85.5892 185.99 82.0695 200.846 74.8242 213.611" stroke="#0B43A4" stroke-miterlimit="10" stroke-linecap="round" stroke-linejoin="round"/>
<path d="M74.5425 351.759C68.5969 346.504 62.5863 341.172 58.1893 334.562C54.3663 328.809 51.8971 322.274 48.5615 316.217C46.4063 312.305 43.8505 308.524 42.605 304.232C41.3596 299.941 41.652 294.848 44.706 291.587C47.89 288.173 53.3592 287.653 57.6803 289.409C62.0014 291.164 65.3046 294.805 67.8171 298.728C71.1636 303.94 73.4054 309.867 74.3368 315.99C75.1815 321.538 74.9649 327.216 75.8313 332.764C76.6327 337.932 78.3763 342.895 80.564 347.631C82.5458 351.922 87.5818 359.583 88.8597 363.982C85.2967 365.749 77.0767 354.002 74.5425 351.759Z" fill="#00AD9F"/>
<path d="M53.7598 297.254C59.413 299.725 61.6548 306.475 62.8353 312.533C64.1782 319.425 63.8749 326.891 67.0373 333.165C72.9937 344.987 80.7372 358.434 86.4987 362.454" stroke="#00AD9F" stroke-miterlimit="10" stroke-linecap="round" stroke-linejoin="round"/>
<path d="M45.2908 335.592C40.3631 333.641 33.7677 332.84 30.6054 337.098C27.9629 340.663 29.3274 345.724 31.1577 349.765C32.7064 353.179 34.6666 356.657 37.9156 358.51C40.1357 359.778 42.7457 360.157 45.2908 360.461C52.3844 361.306 59.5213 361.718 66.6691 361.696C74.9432 361.674 84.9717 365.055 91.8271 370.224C83.0331 353.883 61.8931 342.148 45.2908 335.592Z" fill="#0056EC"/>
<path d="M36.6377 346.211C42.9191 346.482 49.2546 346.916 55.276 348.703C61.4383 350.524 85.145 361.414 88.8489 366.041" stroke="#0B43A4" stroke-miterlimit="10" stroke-linecap="round" stroke-linejoin="round"/>
<path d="M99.094 302.043C92.6719 291.988 81.6903 284.966 69.8749 283.373C61.1459 282.203 52.1679 283.828 43.5473 282.019C34.4934 280.122 26.3276 274.282 21.6058 266.317C16.8839 258.353 15.6493 248.405 18.3027 239.53C20.3279 232.79 24.9522 226.397 31.6451 224.241C35.2948 223.071 39.2803 223.233 43.0058 224.122C46.4497 224.945 49.6445 226.386 52.5903 228.261C59.3265 232.53 64.7739 239.097 68.8677 246.075C72.5823 252.414 81.7445 262.286 87.9825 268.712C91.643 272.461 94.2964 275.029 94.2964 275.029C98.5634 280.361 96.5598 295.704 99.094 302.043Z" fill="#52D2BC"/>
<path d="M29.6848 243.735C50.6624 253.205 73.5353 265.624 88.4156 283.2" stroke="#00AD9F" stroke-miterlimit="10" stroke-linecap="round" stroke-linejoin="round"/>
<path opacity="0.2" d="M90.4302 280.837C90.4302 280.837 59.175 255.481 52.5796 228.272C59.3158 232.541 64.7633 239.108 68.857 246.086C72.5717 252.425 81.7338 262.297 87.9718 268.723C88.7083 272.125 89.5205 276.124 90.4302 280.837Z" fill="#5275A0"/>
<path opacity="0.2" d="M91.8706 179.932C89.0006 188.699 85.0369 197.14 81.0298 205.473C78.9396 209.829 70.4597 219.906 65.9112 221.824C66.4418 210.457 66.4852 197.183 65.1639 185.708C63.8968 174.655 67.8714 166.279 63.5394 156.028C62.9871 154.717 62.4131 153.406 61.8391 152.094C62.2398 152.225 62.6297 152.365 63.0087 152.528C70.1349 155.584 73.4272 163.126 74.0336 170.451C74.5426 176.497 73.4488 182.555 72.6366 188.569C72.2575 191.343 71.9543 194.182 72.5499 196.901C72.5608 196.934 72.5716 196.956 72.5716 196.988C73.3189 200.228 78.0515 200.044 78.658 196.761L80.5533 186.694C81.1164 183.681 81.7337 180.528 84.2029 178.426C85.1776 177.592 86.4339 177.072 87.7118 177.115C89.7479 177.191 91.0258 178.383 91.8706 179.932Z" fill="#5275A0"/>
<path d="M90.4302 274.487C85.4917 248.687 82.8925 244.71 85.0693 238.241C87.8418 229.995 86.2823 221.716 88.8923 213.416C91.5023 205.126 93.2784 196.208 91.1774 187.767C90.5168 185.101 89.1631 182.197 85.9574 182.078C84.6686 182.034 83.4232 182.555 82.4485 183.389C79.9793 185.491 79.3619 188.644 78.7988 191.657L76.9144 201.724C76.2971 204.996 71.5752 205.191 70.828 201.94C70.8171 201.908 70.8171 201.886 70.8063 201.854C70.1998 199.134 70.5139 196.295 70.8821 193.521C71.6943 187.496 72.7882 181.449 72.29 175.392C71.6835 168.067 68.3912 160.525 61.2543 157.48C58.7309 156.396 55.8718 156.158 53.2076 156.841C45.7675 158.748 43.8397 166.03 44.9336 172.239C45.7025 176.616 47.7493 180.637 49.6013 184.668C54.1282 194.518 50.8034 203.555 51.4315 214.38C53.1643 244.277 90.4302 274.487 90.4302 274.487Z" fill="#7EE8D4"/>
<path d="M57.2256 164.664C60.8969 183.021 64.6116 201.507 71.7377 218.823C73.8279 223.894 74.8459 230.58 86.9429 244.385" stroke="#00AD9F" stroke-miterlimit="10" stroke-linecap="round" stroke-linejoin="round"/>
<path d="M200.452 169.367C196.65 165.022 193.141 160.601 189.448 156.342C187.055 153.579 184.586 150.881 181.9 148.324C180.568 147.045 179.192 145.81 177.741 144.607C169.164 137.52 159.59 131.636 149.356 127.258C143.183 124.614 136.663 122.436 131.421 118.221C126.18 114.017 122.411 107.103 124.155 100.613C125.422 95.9315 129.396 92.2906 133.956 90.6218C138.504 88.9639 143.551 89.0939 148.284 90.1125C161.496 92.9624 172.532 102.466 180.037 113.703C180.167 113.898 180.308 114.103 180.438 114.309C185.939 122.707 189.784 132.048 193.131 141.562C194.203 144.618 195.221 147.695 196.228 150.762C197.744 155.345 202.401 164.827 200.452 169.367Z" fill="#5193F4"/>
<path d="M140.01 101.154C154.424 103.907 164.626 113.453 175.315 123.509C186.004 133.565 193.759 146.709 197.387 160.937" stroke="#0B43A4" stroke-miterlimit="10" stroke-linecap="round" stroke-linejoin="round"/>
<path opacity="0.2" d="M189.448 156.342C189.329 157.838 189.373 159.333 189.654 160.85C186.048 160.027 183.546 154.424 181.9 148.324C180.286 142.396 179.485 135.981 179.236 133.023C178.748 126.782 179.149 120.453 180.438 114.309C185.939 122.707 189.784 132.048 193.131 141.562C191.983 144.975 190.997 148.432 190.185 151.921C189.838 153.406 189.567 154.869 189.448 156.342Z" fill="#5275A0"/>
<path d="M214.455 104.275C213.231 109.682 209.971 114.353 207.09 119.099C205.574 121.591 204.156 124.159 202.834 126.76C198.6 135.082 195.372 143.913 193.239 153.005C192.535 155.985 192.145 158.91 192.708 161.934C185.604 160.308 182.766 140.099 182.29 134.096C181.434 123.282 183.275 112.196 187.726 102.292C189.665 97.947 192.178 93.6776 196.044 90.8927C199.899 88.1078 205.358 87.1326 209.441 89.5599C211.899 91.0227 213.48 93.45 214.249 96.2132C215.007 98.7922 215.04 101.664 214.455 104.275Z" fill="#52D2BC"/>
<path d="M190.001 155.974C185.582 144.867 188.268 121.364 195.351 106.594C197.484 102.141 200.527 97.9686 204.784 95.4872" stroke="#00AD9F" stroke-miterlimit="10" stroke-linecap="round" stroke-linejoin="round"/>
<path opacity="0.2" d="M214.455 104.276C213.231 109.683 209.971 114.353 207.09 119.1C205.574 121.592 204.155 124.16 202.834 126.761C200.895 123.488 199.563 119.88 199.195 116.109C198.6 109.813 201.004 103.073 206.116 99.3671C208.509 97.6442 211.314 96.6581 214.249 96.2139C215.007 98.7928 215.039 101.664 214.455 104.276Z" fill="#5275A0"/>
<path d="M255.446 151.314C255.11 153.384 254.493 155.378 253.605 157.296C250.453 164.123 243.836 169.974 233.927 174.742C233.927 174.742 233.375 163.949 233.255 161.056C232.768 148.681 219.35 141.844 210.859 132.817C206.538 128.212 203.257 122.404 202.65 116.108C202.054 109.812 204.459 103.072 209.57 99.3664C213.859 96.2673 219.469 95.5955 224.754 95.9964C233.266 96.6791 241.854 100.244 247.15 106.897C247.378 107.147 247.573 107.418 247.768 107.678C251.006 112.11 252.674 117.506 253.897 122.881C256.02 132.189 256.973 141.876 255.446 151.314Z" fill="#00AD9F"/>
<path d="M213.231 105.998C222.523 110.809 231.826 116.617 237.23 125.568C244.778 138.062 243.132 154.316 237.317 167.698" stroke="#00AD9F" stroke-miterlimit="10" stroke-linecap="round" stroke-linejoin="round"/>
<path d="M410.856 231.122C416.78 221.369 413.747 208.821 415.816 197.606C417.397 188.98 422.195 180.983 429.061 175.522C433.371 172.098 439.425 169.649 444.288 172.217C445.338 172.77 446.594 173.561 447.612 172.932C448.219 172.564 448.457 171.805 448.609 171.112C449.843 165.054 446.93 158.434 449.313 152.723C450.591 149.646 453.244 147.348 456.049 145.56C461.464 142.104 467.799 140.121 474.211 139.861C475.911 139.796 477.687 139.861 479.214 140.619C481.965 141.995 483.221 145.43 482.853 148.486C482.485 151.542 480.795 154.283 478.933 156.732C472.716 164.87 463.608 171.892 462.406 182.056C462.255 183.335 462.255 184.7 462.839 185.849C463.413 186.965 464.475 187.756 465.07 188.85C466.987 192.372 463.283 196.371 459.677 198.094C456.374 199.676 452.8 200.662 449.15 201.008C446.638 201.247 443.811 201.301 442.1 203.154C438.949 206.578 442.566 212.05 441.905 216.656C441.494 219.527 439.414 221.846 437.313 223.862C433.425 227.6 429.18 230.948 424.642 233.863C420.96 236.226 417.072 238.306 413.812 241.21C410.552 244.114 407.921 248.048 407.704 252.415" fill="#52D2BC"/>
<path d="M418.653 221.629C419.617 216.905 421.816 212.527 423.992 208.225C427.393 201.496 430.859 194.669 435.992 189.154C439.891 184.96 444.645 181.644 448.609 177.516C451.436 174.568 453.84 171.231 455.735 167.612C456.764 165.65 457.652 163.592 459.027 161.869C460.673 159.821 462.915 158.358 464.875 156.602C467.518 154.24 469.641 151.304 471.07 148.053" stroke="#00AD9F" stroke-miterlimit="10" stroke-linecap="round" stroke-linejoin="round"/>
<path d="M495.881 237.883C494.549 243.02 492.567 248.102 489.167 252.176C486.817 254.983 483.893 257.204 480.698 259.014C479.052 259.956 477.319 260.78 475.575 261.517C468.796 264.367 461.507 265.981 454.165 266.263C443.465 266.664 432.461 264.302 422.195 267.357C417.483 268.755 413.141 271.302 409.578 274.672C407.347 276.763 405.43 279.18 403.914 281.834L405.311 272.949C407.899 263.391 410.541 253.661 415.827 245.284C419.238 239.856 423.667 235.131 428.378 230.786C435.905 223.829 444.255 217.707 453.471 213.231C460.922 209.612 469.196 207.066 477.427 208.074C485.647 209.07 493.726 214.272 496.293 222.15C497.939 227.21 497.224 232.736 495.881 237.883Z" fill="#5193F4"/>
<path d="M412.307 266.187C420.169 254.549 431.941 245.599 445.262 241.156C453.558 238.382 462.341 237.331 470.745 234.904C479.149 232.476 487.542 228.359 492.47 221.12" stroke="#0B43A4" stroke-miterlimit="10" stroke-linecap="round" stroke-linejoin="round"/>
<path d="M417.484 351.542C417.949 339.59 424.122 328.559 431.628 319.24C437.876 311.471 445.425 304.362 454.749 300.819C457.674 299.714 460.879 298.966 463.912 299.714C466.944 300.461 469.695 303.051 469.749 306.183C469.792 308.816 468.027 311.124 466.164 312.988C460.035 319.132 452.118 323.065 444.688 327.551C431.931 335.267 419.801 345.561 414.744 359.594" fill="#52D2BC"/>
<path d="M422.206 341.086C430.003 323.683 450.19 308.122 463.5 306.183" stroke="#00AD9F" stroke-miterlimit="10" stroke-linecap="round" stroke-linejoin="round"/>
<path d="M412.61 361.046C412.502 359.041 419.032 353.807 420.505 352.474C428.66 345.073 438.342 339.634 448.576 336.426C452.714 335.126 457.121 334.183 461.258 335.18C465.406 336.177 469.208 339.58 469.608 344.044C469.998 348.378 467.096 352.626 463.381 354.717C459.666 356.82 455.334 357.134 451.197 356.895C444.808 356.527 438.526 354.934 432.115 354.977C425.693 355.032 416.682 355.682 412.61 361.046Z" fill="#00AD9F"/>
<path d="M419.26 354.967C432.375 347.858 452.204 343.231 466.608 344.976" stroke="#00AD9F" stroke-miterlimit="10" stroke-linecap="round" stroke-linejoin="round"/>
<path opacity="0.2" d="M255.446 151.314C255.11 153.384 254.493 155.378 253.605 157.296C249.002 147.533 244.952 134.789 243.977 119.142C243.717 114.905 244.898 110.549 247.15 106.897C247.378 107.147 247.573 107.418 247.768 107.678C251.006 112.11 252.674 117.506 253.897 122.881C256.02 132.189 256.973 141.876 255.446 151.314Z" fill="#5275A0"/>
<path d="M300.813 150.762C310.603 147.283 320.783 144.509 329.685 139.135C332.382 137.509 334.97 135.624 336.887 133.131C338.793 130.639 339.974 127.453 339.551 124.333C339.118 121.168 337.093 118.134 337.775 115.003C338.23 112.944 339.768 111.34 340.948 109.585C343.753 105.435 344.587 100.006 343.169 95.1945C341.631 90.0366 337.764 85.8972 335.566 80.9885C333.768 76.9683 333.129 72.4497 333.736 68.0936C325.516 68.202 318.021 72.6989 309.942 74.1943C303.758 75.3429 297.336 74.7144 291.206 76.1231C280.041 78.6913 270.9 88.5304 269.168 99.8649C263.991 98.9763 258.413 100.84 254.807 104.676C250.984 108.75 248.829 114.548 249.175 120.128C251.699 160.687 274.907 181.839 274.907 181.839C274.907 181.839 297.076 152.095 300.813 150.762Z" fill="#7EE8D4"/>
<path d="M278.904 150.48C277.886 140.478 281.384 130.585 285.391 121.364C289.3 112.38 293.806 103.571 299.849 95.8556C305.892 88.1403 313.57 81.5303 322.635 77.8027" stroke="#00AD9F" stroke-miterlimit="10" stroke-linecap="round" stroke-linejoin="round"/>
<path d="M287.622 83.9468C286.593 92.8648 287.318 103.614 289.636 112.283" stroke="#00AD9F" stroke-miterlimit="10" stroke-linecap="round" stroke-linejoin="round"/>
<path d="M291.304 109.086C301.484 102.552 317.144 98.5862 329.22 99.2797" stroke="#00AD9F" stroke-miterlimit="10" stroke-linecap="round" stroke-linejoin="round"/>
<path d="M266.406 110.755C278.666 115.924 279.164 133.955 279.499 139.081" stroke="#00AD9F" stroke-miterlimit="10" stroke-linecap="round" stroke-linejoin="round"/>
<path d="M282.835 127.616C292.214 120.887 305.762 118.86 315.736 121.374" stroke="#00AD9F" stroke-miterlimit="10" stroke-linecap="round" stroke-linejoin="round"/>
<path d="M308.426 79.309C305.61 82.7873 304.906 86.9267 305.188 89.7982" stroke="#00AD9F" stroke-miterlimit="10" stroke-linecap="round" stroke-linejoin="round"/>
<path d="M307.852 87.2518C312.173 85.0412 317.957 84.532 324.141 86.0815" stroke="#00AD9F" stroke-miterlimit="10" stroke-linecap="round" stroke-linejoin="round"/>
<path d="M66.7125 106.876C67.8605 106.811 75.723 100.992 78.7446 99.0305C79.6001 98.4778 80.4557 97.9035 81.0513 97.08C81.647 96.2564 81.9286 95.1295 81.4954 94.2084C80.9539 93.0707 80.0658 91.9329 77.824 91.9329C73.9144 91.9437 72.5498 93.2332 70.6438 95.1945C64.3516 101.707 66.7125 106.876 66.7125 106.876Z" fill="#4A49CA"/>
<path d="M101.942 130.357C105.364 131.896 109.014 133.424 112.74 132.947C114.18 132.763 115.761 132.102 116.238 130.737C116.649 129.566 116.086 128.212 115.155 127.388C114.223 126.565 113 126.164 111.787 125.871C107.238 124.755 100.838 125.373 96.3323 126.651C96.3215 126.651 99.8954 129.436 101.942 130.357Z" fill="#4A49CA"/>
<path d="M124.469 79.7966C122.942 78.8322 121.252 77.5427 121.263 75.7331C121.263 73.9235 123.147 72.5473 124.956 72.5365C126.765 72.5256 128.443 73.5117 129.808 74.7145C135.559 79.7749 134.844 85.5397 134.844 85.5397C134.844 85.5397 126.169 80.8694 124.469 79.7966Z" fill="#4A49CA"/>
<path d="M129.006 64.3769C127.663 63.8026 126.288 63.1091 125.497 61.8738C125.118 61.2778 124.902 60.5193 125.129 59.8474C125.519 58.7313 126.223 57.7236 129.05 58.2329C137.984 59.8583 139.934 65.9806 139.934 65.9806C139.934 65.9806 131.378 65.3955 129.006 64.3769Z" fill="#4A49CA"/>
<path d="M155.182 77.9219C158.767 77.6077 162.471 75.8306 164.724 73.024C165.579 71.9621 166.359 70.8027 166.64 69.4698C166.922 68.137 166.619 66.6199 165.59 65.7314C164.334 64.6478 162.341 64.8212 160.966 65.7314C159.579 66.6416 158.691 68.137 157.976 69.6215C157.023 71.6154 155.182 77.9219 155.182 77.9219Z" fill="#4A49CA"/>
<path d="M91.1882 208.669C82.5134 201.019 73.8278 193.358 65.153 185.708C60.5286 181.633 55.8068 177.429 52.8827 172C46.5905 160.33 50.2185 145.17 58.72 134.995C67.2215 124.82 79.676 118.817 92.1954 114.45C104.704 110.083 117.732 107.017 129.656 101.23C137.14 97.6001 144.656 92.2038 146.713 84.1417C147.948 79.298 146.908 73.9125 143.963 69.8815C141.017 65.8397 136.208 63.2174 131.216 62.9248" stroke="#0B43A4" stroke-miterlimit="10" stroke-linecap="round" stroke-linejoin="round"/>
<path d="M161.247 69.5999C158.875 76.8817 149.637 81.3136 145.425 87.631" stroke="#0B43A4" stroke-miterlimit="10" stroke-linecap="round" stroke-linejoin="round"/>
<path d="M128.086 77.9761C129.905 79.8941 132.082 81.487 133.674 83.6C137.031 88.0753 137.302 95.3462 132.342 99.854" stroke="#0B43A4" stroke-miterlimit="10" stroke-linecap="round" stroke-linejoin="round"/>
<path d="M81.3545 118.763C89.0113 124.669 99.0723 128.602 108.733 128.97" stroke="#0B43A4" stroke-miterlimit="10" stroke-linecap="round" stroke-linejoin="round"/>
<path d="M63.8316 129.512C60.3011 119.11 64.1457 106.648 72.918 100.049" stroke="#0B43A4" stroke-miterlimit="10" stroke-linecap="round" stroke-linejoin="round"/>
<path d="M343.688 85.5614C343.277 84.2719 343.298 82.6899 344.241 81.7255C344.999 80.967 346.255 80.6202 347.241 81.0537C354.854 84.402 354.031 96.2891 354.031 96.2891C354.031 96.2891 346.818 95.2488 343.688 85.5614Z" fill="#4A49CA"/>
<path d="M343.504 107.829C338.577 116.737 356.078 116.054 362.392 110.809C362.392 110.809 347.75 100.158 343.504 107.829Z" fill="#4A49CA"/>
<path d="M365.64 86.2441C364.449 84.6186 364.027 82.1914 365.326 80.6418C366.29 79.4932 367.969 79.1356 369.442 79.4174C370.915 79.6991 373.124 81.0644 374.066 82.2347C379.828 89.4082 377.12 96.4191 377.12 96.4191C377.12 96.4191 367.579 88.9097 365.64 86.2441Z" fill="#4A49CA"/>
<path d="M435.147 108.295C434.725 106.908 434.822 105.218 435.894 104.243C436.577 103.625 437.54 103.408 438.45 103.473C439.36 103.538 440.237 103.874 441.071 104.254C442.858 105.066 444.244 106.497 445.1 108.263C447.266 112.727 445.793 118.243 445.793 118.243C445.793 118.243 436.208 111.752 435.147 108.295Z" fill="#4A49CA"/>
<path d="M413.282 124.636C410.184 121.916 405.452 121.114 401.672 122.772C400.708 123.195 399.798 123.791 399.192 124.636C397.806 126.554 398.293 129.35 399.733 131.224C401.163 133.099 403.34 134.237 405.495 135.212C409.394 136.978 415.437 137.336 419.585 138.398C419.574 138.387 419.563 130.152 413.282 124.636Z" fill="#4A49CA"/>
<path d="M349.147 87.4794C351.724 95.9098 359.013 102.281 367.124 105.716C375.236 109.162 384.171 110.072 392.975 110.636C401.769 111.21 410.672 111.492 419.173 113.8C427.458 116.054 435.721 120.735 439.273 128.559C443.605 138.084 439.772 149.461 433.685 157.979C427.61 166.485 419.422 173.344 413.542 181.991C410.845 185.957 408.581 190.617 409.134 195.385C409.859 201.745 415.22 206.426 420.191 210.457" stroke="#0B43A4" stroke-miterlimit="10" stroke-linecap="round" stroke-linejoin="round"/>
<path d="M369.42 84.3802C375.247 90.8277 379.904 100.916 381.041 109.542" stroke="#0B43A4" stroke-miterlimit="10" stroke-linecap="round" stroke-linejoin="round"/>
<path d="M349.818 109.303C353.154 110.192 356.533 111.08 359.977 111.091C363.421 111.102 367.417 109.184 369.897 106.789" stroke="#0B43A4" stroke-miterlimit="10" stroke-linecap="round" stroke-linejoin="round"/>
<path d="M440.854 108.816C443.974 111.828 445.88 116.087 446.042 120.421C446.204 124.766 443.8 130.022 440.909 133.262" stroke="#0B43A4" stroke-miterlimit="10" stroke-linecap="round" stroke-linejoin="round"/>
<path d="M408.181 128.515C414.419 134.258 419.845 138.907 426.776 143.783C429.938 146.016 436.219 148.865 439.014 148.129" stroke="#0B43A4" stroke-miterlimit="10" stroke-linecap="round" stroke-linejoin="round"/>
<path opacity="0.2" d="M480.697 259.014C479.051 259.956 477.318 260.78 475.575 261.517C468.795 264.367 461.507 265.981 454.164 266.263C443.464 266.664 432.461 264.302 422.194 267.357C417.483 268.755 413.14 271.302 409.577 274.672C409.22 274.845 408.862 275.04 408.505 275.246C407.649 267.997 425.714 258.548 431.205 256.088C441.114 251.645 452.16 249.673 462.99 250.54C467.734 250.919 472.597 251.851 476.506 254.549C478.185 255.709 479.658 257.258 480.697 259.014Z" fill="#5275A0"/>
<path d="M462.98 254.874C467.724 255.254 472.586 256.185 476.496 258.884C480.406 261.582 483.167 266.404 482.257 271.074C481.196 276.514 475.575 280.057 470.074 280.718C464.572 281.39 459.081 279.873 453.656 278.757C441.645 276.286 429.256 275.712 417.072 277.088C414.029 277.424 411.148 278.031 408.495 279.591C407.639 272.342 425.714 262.893 431.205 260.433C441.115 255.98 452.161 254.007 462.98 254.874Z" fill="#52D2BC"/>
<path d="M413.195 275.018C422.162 267.13 445.197 261.777 461.486 263.5C466.391 264.02 471.341 265.483 475.11 268.669" stroke="#00AD9F" stroke-miterlimit="10" stroke-linecap="round" stroke-linejoin="round"/>
<path d="M396.441 186.38L484.044 186.195C494.322 186.174 502.672 194.496 502.693 204.779C502.715 215.063 494.398 223.417 484.12 223.439L424.198 223.558" stroke="#0B43A4" stroke-miterlimit="10" stroke-linecap="round" stroke-linejoin="round" stroke-dasharray="4 4"/>
<path d="M131.389 250.735L70.124 250.865C64.3192 250.876 59.6298 255.589 59.6406 261.398C59.6515 267.206 64.3625 271.898 70.1674 271.887L88.0259 271.854" stroke="#0B43A4" stroke-miterlimit="10" stroke-linecap="round" stroke-linejoin="round" stroke-dasharray="4 4"/>
<path d="M33.6054 298.197C12.6169 298.24 12.1838 329.567 38.8796 329.502C65.5862 329.448 415.902 328.722 432.418 328.689C448.934 328.657 450.677 302.867 430.263 302.91C389.618 302.997 388.275 283.601 410.834 283.557" stroke="#C8DBFB" stroke-miterlimit="10" stroke-linecap="round" stroke-linejoin="round" stroke-dasharray="4 4"/>
<path d="M38.5112 297.33C38.9878 300.158 37.0925 302.834 34.2659 303.322C31.4393 303.799 28.7643 301.903 28.2769 299.074C27.8004 296.246 29.6957 293.57 32.5223 293.082C35.3489 292.605 38.0347 294.502 38.5112 297.33Z" fill="#5193F4"/>
<path d="M420.906 283.698C421.382 286.526 419.487 289.203 416.66 289.69C413.834 290.167 411.159 288.271 410.671 285.443C410.195 282.614 412.09 279.938 414.917 279.45C417.743 278.974 420.418 280.881 420.906 283.698Z" fill="#0B43A4"/>
<path opacity="0.2" d="M426.548 374.266L100.686 374.937C96.3434 374.948 92.802 371.427 92.802 367.081L92.3579 151.087C92.3471 146.741 95.8668 143.198 100.21 143.198L426.072 142.526C430.415 142.515 433.956 146.037 433.956 150.382L434.4 366.377C434.411 370.722 430.902 374.255 426.548 374.266Z" fill="#5275A0"/>
<path d="M420.169 370.136L94.3073 370.808C89.9645 370.819 86.4231 367.297 86.4231 362.952L85.979 146.957C85.9682 142.612 89.4879 139.069 93.8307 139.069L419.693 138.397C424.036 138.386 427.577 141.908 427.577 146.253L428.021 362.248C428.032 366.593 424.512 370.125 420.169 370.136Z" fill="white"/>
<path d="M419.163 138.387L94.6977 139.059C89.9651 139.07 86.1421 142.916 86.1421 147.652L86.1529 155.107L427.762 154.403L427.751 146.947C427.74 142.212 423.896 138.376 419.163 138.387Z" fill="#0056EC"/>
<path d="M95.0869 370.809L144.114 370.711L143.67 154.988L86.0764 155.107L86.4988 362.27C86.5096 366.995 90.3542 370.82 95.0869 370.809Z" fill="#C8DBFB"/>
<path d="M419.791 140.554C422.932 140.554 425.487 143.111 425.498 146.254L425.942 362.248C425.942 363.776 425.357 365.207 424.274 366.29C423.202 367.374 421.773 367.97 420.246 367.97L94.3726 368.642C91.2319 368.642 88.6761 366.084 88.6652 362.942L88.2212 146.947C88.2212 145.42 88.806 143.989 89.889 142.906C90.9612 141.822 92.3907 141.226 93.9177 141.226L419.769 140.554H419.791ZM419.791 138.387C419.791 138.387 419.78 138.387 419.769 138.387L93.9069 139.059C89.5641 139.07 86.0444 142.602 86.0552 146.947L86.4992 362.942C86.5101 367.287 90.0298 370.798 94.3726 370.798C94.3726 370.798 94.3834 370.798 94.3943 370.798L420.257 370.126C424.599 370.115 428.119 366.583 428.108 362.238L427.664 146.243C427.653 141.898 424.134 138.387 419.791 138.387Z" fill="#0056EC"/>
<path d="M135.84 354.317L98.0545 354.392C96.3867 354.392 95.033 353.049 95.033 351.38V351.001C95.033 349.332 96.3759 347.977 98.0437 347.977L135.829 347.902C137.497 347.902 138.851 349.245 138.851 350.914V351.293C138.862 352.962 137.508 354.317 135.84 354.317Z" fill="white"/>
<path d="M131.302 207.965L99.1373 208.03C96.0832 208.041 93.6032 205.56 93.5924 202.504L93.5274 170.321C93.5165 167.265 95.9966 164.784 99.0506 164.773L131.216 164.708C134.27 164.697 136.75 167.178 136.761 170.234L136.825 202.417C136.825 205.484 134.356 207.965 131.302 207.965Z" fill="white"/>
<path d="M269.005 304.373L156.937 304.601C154.76 304.601 152.995 302.845 152.984 300.667V300.18C152.984 298.002 154.738 296.235 156.915 296.225L268.983 295.997C271.16 295.997 272.926 297.753 272.936 299.931V300.418C272.936 302.607 271.182 304.373 269.005 304.373Z" fill="#C8DBFB"/>
<path d="M262.529 176.616L173.972 176.801C171.795 176.801 170.03 175.045 170.019 172.867V172.38C170.019 170.202 171.774 168.435 173.951 168.424L262.507 168.24C264.684 168.24 266.449 169.996 266.46 172.174V172.661C266.46 174.85 264.705 176.616 262.529 176.616Z" fill="#C8DBFB"/>
<path d="M402.527 266.241L284.449 266.491C282.272 266.491 280.506 264.735 280.496 262.557V262.069C280.496 259.891 282.25 258.125 284.427 258.114L402.506 257.876C404.683 257.876 406.448 259.631 406.459 261.809V262.297C406.459 264.464 404.704 266.23 402.527 266.241Z" fill="#C8DBFB"/>
<path d="M269.038 321.7L156.969 321.928C154.792 321.928 153.027 320.172 153.016 317.994V317.507C153.016 315.329 154.771 313.562 156.948 313.551L269.016 313.324C271.193 313.324 272.958 315.079 272.969 317.257V317.745C272.98 319.923 271.214 321.689 269.038 321.7Z" fill="#C8DBFB"/>
<path d="M269.07 339.016L157.002 339.244C154.825 339.244 153.06 337.488 153.049 335.31V334.822C153.049 332.644 154.803 330.878 156.98 330.867L269.048 330.64C271.225 330.64 272.99 332.395 273.001 334.573V335.061C273.012 337.239 271.247 339.016 269.07 339.016Z" fill="#C8DBFB"/>
<path d="M400.123 350.307L287.178 350.546C283.582 350.556 280.658 347.642 280.658 344.044L280.561 295.509C280.55 291.912 283.463 288.986 287.059 288.986L400.004 288.748C403.6 288.737 406.524 291.652 406.524 295.249L406.621 343.784C406.632 347.381 403.719 350.307 400.123 350.307Z" fill="#C8DBFB"/>
<path d="M104.877 146.904C104.877 148.432 103.643 149.667 102.126 149.667C100.61 149.667 99.3647 148.432 99.3647 146.915C99.3647 145.387 100.599 144.152 102.116 144.152C103.632 144.152 104.877 145.387 104.877 146.904Z" fill="#C8DBFB"/>
<path d="M113.812 149.657C115.337 149.657 116.574 148.419 116.574 146.893C116.574 145.367 115.337 144.13 113.812 144.13C112.287 144.13 111.05 145.367 111.05 146.893C111.05 148.419 112.287 149.657 113.812 149.657Z" fill="#C8DBFB"/>
<path d="M128.259 146.861C128.259 148.389 127.024 149.624 125.508 149.624C123.992 149.624 122.747 148.389 122.747 146.872C122.747 145.344 123.981 144.108 125.497 144.108C127.014 144.098 128.248 145.333 128.259 146.861Z" fill="#C8DBFB"/>
<path d="M165.685 173.457C166.125 169.069 162.925 165.155 158.539 164.715C154.153 164.275 150.241 167.476 149.802 171.865C149.362 176.253 152.562 180.168 156.948 180.607C161.334 181.047 165.246 177.846 165.685 173.457Z" fill="#C8DBFB"/>
<path d="M133.544 214.716L98.1845 214.792C97.3614 214.792 96.7008 214.131 96.6899 213.307V213.123C96.6899 212.3 97.3506 211.639 98.1736 211.628L133.533 211.552C134.357 211.552 135.017 212.213 135.028 213.036V213.221C135.028 214.044 134.367 214.716 133.544 214.716Z" fill="white"/>
<path d="M133.555 221.478L98.1952 221.553C97.3721 221.553 96.7115 220.892 96.7007 220.069V219.885C96.7007 219.061 97.3613 218.4 98.1844 218.389L133.544 218.313C134.367 218.313 135.028 218.974 135.039 219.798V219.982C135.039 220.806 134.378 221.467 133.555 221.478Z" fill="white"/>
<path d="M174.037 235.76L164.041 235.857L164.117 277.771L155.486 277.792C152.442 277.803 149.973 275.333 149.962 272.288L149.8 194.778C149.789 191.7 152.28 189.197 155.356 189.197L173.929 189.154L174.037 235.76Z" fill="#C8DBFB"/>
<path d="M238.898 189.024V190.107C241.887 190.107 244.324 192.535 244.324 195.525L244.475 271.096C244.475 272.548 243.912 273.913 242.894 274.943C241.876 275.972 240.511 276.535 239.06 276.546L156.46 276.72C153.471 276.72 151.034 274.292 151.034 271.302L150.883 195.731C150.883 194.279 151.446 192.914 152.464 191.884C153.482 190.855 154.847 190.292 156.298 190.281L238.887 190.107L238.898 189.024ZM238.898 189.024H238.887L156.298 189.197C152.702 189.208 149.789 192.123 149.8 195.72L149.951 271.291C149.962 274.888 152.876 277.792 156.46 277.792H156.471L239.06 277.619C242.656 277.608 245.569 274.693 245.558 271.096L245.407 195.525C245.407 191.928 242.493 189.013 238.898 189.024Z" fill="#C8DBFB"/>
<path d="M376.806 251.212L266.644 226.3C263.135 225.509 260.937 222.019 261.727 218.509L274.117 163.646C274.907 160.135 278.395 157.935 281.904 158.726L392.066 183.638C395.575 184.429 397.773 187.918 396.983 191.429L384.593 246.292C383.802 249.803 380.315 252.014 376.806 251.212Z" fill="#C8DBFB"/>
<path d="M163.608 400.424L148.197 400.456L144.417 380.811L167.301 380.767L163.608 400.424Z" fill="#0056EC"/>
<path d="M148.685 380.8C148.685 382.403 148.381 385.091 149.454 385.134C150.526 385.177 150.082 382.577 151.295 382.653C152.074 382.696 150.937 391.191 153.872 391.397C155.887 391.538 155.518 387.236 155.724 384.538C155.865 382.718 158.193 383.075 158.215 384.278C158.237 385.633 158.15 386.532 158.215 388.071C158.323 390.639 162.265 389.956 162.125 386.532C161.984 383.108 162.114 380.789 162.114 380.789L148.685 380.8Z" fill="#C8DBFB"/>
<path d="M145.002 392.665C144.688 392.665 144.385 392.633 144.093 392.568C142.955 392.319 142.165 391.723 141.721 390.791C140.15 387.453 144.288 381.212 144.45 380.93L144.667 382.057C144.634 382.122 141.028 387.486 142.446 390.487C142.782 391.203 143.378 391.647 144.277 391.842C144.526 391.896 144.786 391.918 145.046 391.918C150.601 391.907 160.088 381.559 160.197 381.439C160.587 380.973 161.312 381.418 161.052 381.808C160.608 382.306 150.97 392.655 145.002 392.665Z" fill="#0C2340"/>
<path opacity="0.2" d="M306.975 123.964C285.066 123.13 254.904 139.341 265.604 178.979C265.377 182.327 267.381 184.722 269.514 184.072C271.648 183.422 269.763 177.061 269.763 177.061C273.413 147.587 280.236 142.494 291.813 142.602L318.985 142.548C325.7 143.534 337.905 148.237 339.735 171.827L346.504 173.073C347.035 156.028 342.919 125.34 306.975 123.964Z" fill="#5275A0"/>
<path d="M306.975 120.508C285.066 119.673 254.904 135.884 265.604 175.522L269.763 173.604C273.413 144.13 280.236 139.037 291.813 139.146L318.985 139.091C325.7 140.077 338.23 146.048 340.06 169.638L346.493 169.627C347.035 152.571 342.919 121.884 306.975 120.508Z" fill="#EF832B"/>
<path d="M302.491 121.158L299.242 128.309C299.242 128.309 299.632 132.34 303.585 132.254C307.538 132.167 308.069 130.347 308.069 130.347L308.588 122.133L302.491 121.158Z" fill="#FFB9A3"/>
<path d="M319.223 115.187C315.52 121.743 313.873 123.791 309.022 124.777C302.74 126.056 295.701 121.819 298.971 111.373C301.636 102.856 305.686 104.167 309.639 104.492C313.592 104.806 323.231 108.1 319.223 115.187Z" fill="#FFB9A3"/>
<path d="M304.473 110.007C303.488 109.498 302.22 109.932 301.452 110.733C300.661 111.568 300.282 112.803 300.618 113.898C299.101 113.919 297.769 115.404 297.91 116.921C296.87 114.504 297.434 111.98 297.228 109.498C297.022 107.017 297.293 104.329 298.896 102.433C299.556 101.653 300.401 101.057 301.3 100.58C304.711 98.7596 309.011 98.7054 312.476 100.418C313.191 100.775 314.989 101.902 317.501 101.295C322.288 100.136 325.082 103.376 322.212 106.41C323.133 106.746 324.151 107.158 324.563 108.046C324.671 108.274 324.725 108.555 324.584 108.761C324.487 108.902 324.314 108.978 324.14 109.032C323.339 109.303 322.462 109.368 321.617 109.227C321.942 109.498 323.718 109.606 324.249 110.647C325.678 113.399 320.025 112.012 319.158 111.73C320.144 111.915 322.722 113.973 321.898 115.393C321.736 115.675 318.249 117.701 314.588 113.442C313.733 112.456 312.671 111.535 311.415 111.199C310.43 110.939 309.39 111.297 308.426 111.665C307.722 111.925 305.935 113.02 305.426 112.37C304.895 111.676 305.621 110.582 304.473 110.007Z" fill="#0C2340"/>
<path d="M340.764 169.627C339.79 172.976 338.815 173.301 339.984 173.832C341.165 174.363 342.118 172.488 342.118 172.488L347.555 173.572C347.555 173.572 346.331 170.039 345.475 169.616C344.62 169.194 340.764 169.627 340.764 169.627Z" fill="#FFB9A3"/>
<path d="M269.763 173.604C270.478 175.37 270.673 175.381 271.658 177.505C273.554 181.558 269.124 187.962 266.373 180.973C265.615 179.055 265.604 175.533 265.604 175.533L269.763 173.604Z" fill="#FFB9A3"/>
<path d="M312.217 100.992C315.931 101.198 320.502 98.5753 323.415 101.934C323.686 102.249 324.227 101.837 323.989 101.49C321.206 97.4917 316.04 100.472 312.228 100.363C311.816 100.363 311.827 100.97 312.217 100.992Z" fill="#0C2340"/>
<path d="M313.711 98.9438C311.177 99.3881 308.73 98.1853 306.184 98.5862C304.116 98.9113 302.275 99.9732 300.715 101.328C300.315 101.674 300.834 102.357 301.289 102.065C303.477 100.623 305.578 99.3773 308.307 99.5831C310.289 99.724 311.968 100.32 313.939 99.724C314.437 99.5723 314.22 98.8571 313.711 98.9438Z" fill="#0C2340"/>
<path d="M299.264 102.411C297.477 103.527 296.448 105.012 296.232 107.147C296.08 108.685 296.037 112.207 297.585 113.074C297.954 113.28 298.343 112.792 298.04 112.478C297.044 111.47 296.957 108.75 297.033 107.472C297.141 105.51 297.964 104.015 299.524 102.845C299.773 102.661 299.546 102.238 299.264 102.411Z" fill="#0C2340"/>
<path d="M326.74 108.512C325.819 106.919 323.469 105.51 321.66 106.518C321.379 106.681 321.509 107.114 321.823 107.114C322.613 107.125 323.339 107.027 324.108 107.266C324.985 107.537 325.722 108.046 326.241 108.794C326.458 109.097 326.924 108.837 326.74 108.512Z" fill="#0C2340"/>
<path d="M206.224 273.816C217.714 278.042 227.689 291.218 225.393 300.808C222.805 311.633 215.343 316.304 215.343 316.304L212.993 311.958C212.993 311.958 218.96 302.629 218.44 298.218C217.606 291.164 208.704 286.44 208.704 286.44L206.224 273.816Z" fill="#0B43A4"/>
<path d="M177.947 395.959C177.947 395.959 170.897 398.809 169.131 400.424L183.102 400.391L183.091 395.948L177.947 395.959Z" fill="#0C2340"/>
<path d="M208.823 395.688C208.823 395.688 210.827 398.007 211.195 400.337L201.665 400.359C201.827 398.755 202.509 397.206 203.441 395.699L208.823 395.688Z" fill="#0C2340"/>
<path d="M209.408 395.894L202.899 395.905C203.029 388.233 201.448 362.086 199.921 342.538C199.022 331.073 198.134 321.863 197.614 319.999L201.101 319.229L214.26 316.304C216.512 326.598 211.314 373.865 209.408 395.894Z" fill="#047F76"/>
<path d="M185.485 319.587C180.405 327.584 179.095 385.405 176.972 396.122L183.145 396.469C183.145 396.469 190.239 360.016 205.336 319.034L185.485 319.587Z" fill="#009790"/>
<path opacity="0.2" d="M207.935 319.034C204.957 327.129 202.282 335.05 199.921 342.538C199.022 331.073 198.134 321.863 197.614 319.999L201.101 319.229L207.935 319.034Z" fill="#5275A0"/>
<path d="M185.485 319.587C180.405 327.584 179.095 385.405 176.972 396.122L183.145 396.469C183.145 396.469 190.239 360.016 205.336 319.034L185.485 319.587Z" fill="#009790"/>
<path d="M189.362 255.037C189.362 255.037 185.409 270.099 195.286 270.088L194.701 273.935L202.195 274.758L200.571 269.395C200.571 269.395 202.054 259.924 202.152 258.212C202.336 255.015 193.39 249.391 189.362 255.037Z" fill="#FFB9A3"/>
<path d="M164.95 238.152L162.037 238.158L162.061 250.457L164.974 250.451L164.95 238.152Z" fill="#0C2340"/>
<path d="M171.839 238.133L155.139 238.165C153.969 238.165 153.016 237.222 153.016 236.052V235.619C153.016 234.448 153.959 233.495 155.128 233.495L171.828 233.462C172.998 233.462 173.951 234.405 173.951 235.575V236.009C173.961 237.179 173.008 238.133 171.839 238.133Z" fill="#0056EC"/>
<path d="M161.258 253.661C161.182 250.876 158.875 251.602 160.143 247.051C160.922 244.233 166.738 247.506 166.012 249.456C165.287 251.407 164.453 254.495 164.453 254.495L161.258 253.661Z" fill="#FFB9A3"/>
<path d="M195.351 273.057C180.589 274.032 179.615 279.017 173.008 278.237C163.229 277.088 164.94 258.916 166.153 252.404L160.316 252.415C160.316 252.415 149.789 293.797 183.037 286.147C181.759 293.396 190.033 305.24 182.008 319.609C194.625 323.044 206.408 323.878 216.491 319.544C214.725 317.16 220.108 293.115 209.57 275.81C207.513 272.418 196.434 272.981 195.351 273.057Z" fill="#0056EC"/>
<path d="M195.351 273.057C180.589 274.032 179.615 279.017 173.008 278.237C163.229 277.088 164.94 258.916 166.153 252.404L160.316 252.415C160.316 252.415 149.789 293.797 183.037 286.147C181.759 293.396 190.033 305.24 182.008 319.609C194.625 323.044 206.408 323.878 216.491 319.544C214.725 317.16 220.108 293.115 209.57 275.81C207.513 272.418 196.434 272.981 195.351 273.057Z" fill="#0056EC"/>
<path d="M193.315 257.93C194.279 258.179 195.394 258.363 195.914 259.176C196.25 259.707 196.228 260.368 196.195 260.986C196.369 260.336 197.094 259.87 197.777 259.956C198.47 260.032 199.055 260.65 199.065 261.322C199.076 261.636 198.968 261.939 198.849 262.232C198.556 262.969 198.188 263.662 197.755 264.323C198.957 264.768 199.975 268.3 200.571 269.395C202.596 268.885 207.112 267.141 207.502 259.956C207.686 256.608 206.668 252.599 203.04 250.377C200.473 248.806 196.228 248.784 193.293 249.532C190.91 250.139 187.12 252.523 188.885 255.297C189.773 256.695 191.723 257.518 193.315 257.93Z" fill="#EF832B"/>
<path d="M205.964 253.357C207.339 252.902 209.083 253.141 209.906 254.289C210.545 255.189 210.491 256.359 210.697 257.432C210.794 257.952 210.978 258.472 211.379 258.829C211.855 259.252 212.548 259.36 213.198 259.393C214.79 259.48 216.393 259.274 217.963 259.545C219.534 259.816 221.137 260.693 221.581 262.156C221.83 262.969 221.689 263.857 221.992 264.648C222.436 265.84 223.703 266.523 224.808 267.217C227.158 268.69 229.162 270.684 230.602 272.992C231.523 274.455 232.226 276.08 232.335 277.782C232.443 279.483 233.678 281.737 233.342 283.406C232.985 285.215 231.208 287.664 227.7 288.791C221.635 290.742 219.707 291.587 213.891 288.13C213.187 287.718 211.823 286.299 211.184 285.789C210.686 285.389 210.372 284.814 210.198 284.218C209.711 282.55 210.274 280.751 211.141 279.234C212.007 277.717 213.187 276.373 214.075 274.867C214.606 273.957 215.039 272.949 214.996 271.909C214.974 271.518 214.877 271.118 214.595 270.836C214.346 270.597 214 270.478 213.653 270.413C212.375 270.164 210.967 270.424 209.819 269.85C208.693 269.297 208.076 267.932 208.422 266.761C208.65 265.981 209.245 265.32 209.408 264.529C209.646 263.381 208.931 262.21 207.935 261.538C206.939 260.867 205.715 260.607 204.513 260.412C203.917 260.314 203.3 260.216 202.823 259.87C202.228 259.447 201.957 258.699 201.968 257.995C202.011 255.741 203.841 254.062 205.964 253.357Z" fill="#EF832B"/>
<path d="M204.87 259.414C212.17 260.997 202.953 267.921 206.82 271.237C207.924 272.179 209.202 271.887 210.491 272.06C215.451 272.743 212.733 276.113 212.397 278.757C212.343 279.158 213.003 279.234 213.09 278.854C213.512 277.034 215.18 274.802 214.325 272.862C213.567 271.15 211.682 271.356 210.134 271.302C208.195 271.247 206.061 271.302 206.787 267.455C206.95 266.599 207.632 265.732 207.968 264.919C208.347 263.987 208.607 263.066 208.401 262.048C208.043 260.325 206.614 259.317 204.968 259.046C204.729 258.992 204.621 259.36 204.87 259.414Z" fill="#EF832B"/>
<path d="M189.827 250.464C195.459 247.603 201.069 248.178 205.823 252.371C206.148 252.653 206.581 252.219 206.3 251.894C202.13 247.192 194.712 246.368 189.676 250.193C189.513 250.323 189.643 250.562 189.827 250.464Z" fill="#EF832B"/>
<path d="M378.983 268.138L376.546 273.057L382.503 275.495L383.142 269.839L378.983 268.138Z" fill="#FFB9A3"/>
<path d="M382.579 252.154C369.052 258.049 374.597 272.331 382.828 270.652C386.835 269.839 388.86 256.922 388.86 256.922L382.579 252.154Z" fill="#FFB9A3"/>
<path d="M387.073 250.128C386.629 249.305 386.207 248.416 385.471 247.831C384.734 247.246 383.575 247.051 382.893 247.69C381.983 248.535 382.514 250.117 383.434 250.952C382.644 251.049 381.702 250.496 381.117 251.049C380.673 251.461 380.824 252.198 381.084 252.75C381.68 254.04 382.655 255.167 383.857 255.925C383.175 256.315 382.373 257.074 382.785 257.746C382.904 257.93 383.088 258.06 383.207 258.244C383.467 258.678 383.218 259.241 382.947 259.675C382.525 260.379 382.059 261.062 381.572 261.723C382.037 261.083 383.175 261.343 383.51 262.059C383.846 262.774 383.554 263.651 383.023 264.237C382.731 264.562 382.362 264.833 381.929 264.93C381.561 265.017 379.915 270.088 381.193 271.085C382.774 272.309 388.146 271.247 388.925 269.86C389.705 270.706 390.842 271.345 391.968 271.117C393.095 270.89 393.95 269.503 393.344 268.528C394.557 268.972 396.041 268.582 396.874 267.585C397.708 266.588 397.827 265.06 397.167 263.944C397.827 263.749 397.968 262.85 397.795 262.178C397.448 260.823 396.344 259.675 394.99 259.295C395.672 259.306 396.214 258.613 396.246 257.93C396.279 257.247 395.921 256.597 395.488 256.066C394.221 254.495 392.716 254.083 390.842 253.845C388.958 253.617 387.918 251.688 387.073 250.128Z" fill="#4A49CA"/>
<path d="M374.402 395.027C374.402 395.027 366.486 398.831 365.424 400.012C365.424 400.012 380.998 400.716 382.222 399.98C383.445 399.243 379.731 395.017 379.731 395.017L374.402 395.027Z" fill="#0C2340"/>
<path d="M403.849 390.725C403.849 390.725 396.896 396.089 396.095 397.465C396.095 397.465 412.513 395.027 412.513 393.955C412.513 392.882 409.047 389.609 409.047 389.609L403.849 390.725Z" fill="#0C2340"/>
<path d="M382.048 321.592C381.756 323.206 370.915 366.009 401.932 391.679L410.91 389.62C410.91 389.62 400.459 379.814 395.531 362.151C390.874 345.453 394.567 343.816 397.362 334.627C400.459 324.452 398.152 317.062 398.152 317.062L382.048 321.592Z" fill="#D8742A"/>
<path d="M367.233 321.462C362.316 333.219 353.879 373.28 372.269 395.829L381.453 395.808C381.453 395.808 374.218 387.876 373.406 369.465C372.594 351.055 377.272 342.971 380.575 336.903C383.878 330.824 386.932 320.508 386.932 320.508L367.233 321.462Z" fill="#EF832B"/>
<path d="M360.756 248.589C358.32 257.193 357.518 273.1 369.734 279.505L377.911 277.511C377.911 277.511 363.161 269.774 366.323 250.226L360.756 248.589Z" fill="#0B43A4"/>
<path d="M338.219 244.19L344.566 243.41C344.566 243.41 343.797 270.088 374.597 272.342C398.109 274.054 399.95 318.2 399.95 318.2C392.369 323.304 379.655 324.853 363.356 323.683C363.356 323.683 364.395 292.193 361.807 283.568C361.807 283.557 336.216 275.506 338.219 244.19Z" fill="#0056EC"/>
<path d="M330.454 239.346C329.382 240.592 333.866 242.174 338.219 244.19L343.797 243.507C343.797 243.507 343.862 242.391 343.797 241.232C343.732 240.072 343.147 239.411 342.486 240.408C341.826 241.405 339.01 241.741 337.678 240.831C336.335 239.91 331.526 238.1 330.454 239.346Z" fill="#FFB9A3"/>
<path d="M360.756 248.589C358.71 246.585 359.262 246.704 359.262 246.704L365.489 248.113C365.489 248.113 366.854 245.068 368.023 244.992C369.182 244.905 367.146 247.083 367.612 247.896C368.078 248.709 366.334 250.236 366.334 250.236L360.756 248.589Z" fill="#FFB9A3"/>
<path d="M390.571 253.065C391.849 253.39 393.149 253.52 394.21 254.397C395.261 255.264 395.737 256.749 394.979 257.952C394.622 258.515 395.466 258.959 395.846 258.461C396.809 257.193 396.549 255.459 395.575 254.257C394.448 252.88 392.358 252.306 390.647 252.49C390.344 252.523 390.236 252.978 390.571 253.065Z" fill="#4A49CA"/>
<path d="M396.203 264.627C397.048 265.125 397.752 265.927 397.394 266.978C397.058 267.942 396.084 268.517 395.293 269.069C394.914 269.34 395.239 269.915 395.661 269.698C396.831 269.08 398.066 268.213 398.25 266.783C398.412 265.537 397.578 264.594 396.539 264.031C396.16 263.836 395.835 264.399 396.203 264.627Z" fill="#4A49CA"/>
<path d="M381.983 271.085C384.853 272.873 388.914 272.58 391.286 270.066C391.578 269.752 391.178 269.167 390.809 269.449C388.21 271.377 385.265 271.995 382.221 270.684C381.951 270.565 381.723 270.922 381.983 271.085Z" fill="#4A49CA"/>
<path d="M396.582 254.95C398.228 256.521 396.582 258.667 395.52 260.01C395.282 260.303 395.65 260.704 395.943 260.433C396.885 259.555 397.827 258.58 397.957 257.236C398.055 256.218 397.632 255.253 396.733 254.755C396.614 254.69 396.473 254.853 396.582 254.95Z" fill="#4A49CA"/>
<path d="M213.382 56.9975L210.848 50.7885L235.356 41.4695L213.382 56.9975Z" fill="#0B43A4"/>
<path d="M214.617 53.1616L235.356 41.4695L220.92 56.1415L214.617 53.1616Z" fill="#5193F4"/>
<path d="M205.238 48.2528L235.356 41.4695L210.848 50.7885L205.238 48.2528Z" fill="#5193F4"/>
<path d="M214.617 53.1616L213.382 56.9976L217.13 54.3536L214.617 53.1616Z" fill="#0056EC"/>
<path d="M210.502 56.1631C204.101 55.0795 195.416 61.5594 199.152 68.2994C200.419 70.5967 206.982 69.5998 206.495 67.0641C206.256 65.8505 204.773 65.3304 203.549 65.4712C196.401 66.2948 196.109 72.2871 196.434 73.815C198.069 81.7036 210.155 79.0379 214.216 77.9218" stroke="#C8DBFB" stroke-miterlimit="10" stroke-linecap="round" stroke-linejoin="round" stroke-dasharray="4 4"/>
</g>
<defs>
<clipPath id="clip0">
<rect width="514" height="439" fill="white"/>
</clipPath>
</defs>
</svg>
