<svg width="280" height="239" viewBox="0 0 280 239" fill="none" xmlns="http://www.w3.org/2000/svg">
<path d="M58.8314 30.3872C68.0465 31.0067 71.9048 24.718 76.2292 16.6359C88.0815 -5.48666 114.482 -3.357 123.337 10.2646C129.609 19.9159 143.136 17.9278 154.074 14.1522C164.841 10.4357 183.189 6.86656 197.808 11.3088C210.574 15.1905 215.807 29.1838 227.447 28.3225C252.833 26.4465 265.629 51.501 261.028 62.4325C258.025 69.5648 256.538 77.5466 258.975 84.8853C261.659 92.9674 267.8 99.3682 272.762 106.318C277.724 113.267 281.718 121.957 279.252 130.11C277.139 137.089 270.845 141.914 266.939 148.079C254.804 167.234 266.809 196.595 250.639 212.565C239.064 223.992 220.197 221.355 204.002 223.538C190.498 225.355 177.791 231.03 164.345 233.248C137.119 237.749 109.627 227.838 82.0285 227.555C72.306 227.455 62.4006 228.54 52.9849 226.145C40.4188 222.948 29.7287 213.279 25.3689 201.179C19.3514 184.484 25.0504 165.158 18.2599 148.758C12.7261 135.396 -0.813408 124.523 0.0420316 110.105C0.572994 101.126 6.70266 93.6223 10.9209 85.6582C17.1862 73.83 8.8855 27.0482 58.8314 30.3872ZM139.172 8.71305C136.747 8.71305 134.788 10.2174 134.788 12.0698C134.788 13.9222 136.759 15.2672 139.172 15.4265C147.048 15.9456 147.048 12.7659 147.048 10.9076C147.048 7.94614 141.591 8.71305 139.172 8.71305ZM219.152 23.0367C221.259 24.777 223.943 25.8152 226.68 25.9568C227.412 25.9922 228.208 25.945 228.769 25.4849C229.465 24.9126 229.542 23.7387 228.922 23.0838C228.533 22.6709 227.966 22.488 227.436 22.2697C226.533 21.904 225.654 21.3789 225.141 20.5589C224.993 20.323 224.863 20.0457 224.621 19.91C223.105 19.0546 216.38 20.7477 219.152 23.0367ZM232.568 26.004C233.264 26.2459 234.019 26.0217 234.721 25.7975C235.17 25.6501 235.719 25.3315 235.601 24.8831C235.542 24.6649 235.341 24.5233 235.14 24.4171C234.22 23.9275 233.028 23.5617 232.108 24.1929C231.182 24.8183 231.878 25.768 232.568 26.004ZM264.597 89.2863C264.715 90.3304 265.364 91.233 265.983 92.0825C267.187 93.7226 268.408 95.3862 269.995 96.6663C270.668 97.2091 271.446 97.6928 272.314 97.7223C273.104 97.7518 273.859 97.392 274.496 96.9318C276.054 95.8168 277.104 94.0293 277.322 92.1356C277.617 89.5399 276.408 87.0091 275.004 84.7969C274.131 83.4282 273.116 82.0596 271.665 81.328C269.222 80.0951 267.612 81.1688 266.927 83.3338C266.308 85.3278 264.343 87.0681 264.597 89.2863ZM4.79119 149.755C3.50509 150.887 4.6673 154.203 5.04488 156.391C5.15697 157.046 5.31036 157.725 5.72333 158.25C6.28969 158.963 7.23362 159.258 8.11266 159.518C9.67605 159.972 11.5757 160.356 12.7733 159.258C13.6583 158.444 13.7881 157.111 13.7822 155.913C13.7822 154.816 13.7232 153.725 13.6052 152.633C13.5521 152.108 13.4754 151.572 13.1922 151.123C12.8323 150.551 12.1952 150.221 11.5757 149.955C9.33977 149.011 6.0773 148.628 4.79119 149.755ZM83.3854 232.8C82.6244 232.953 81.7158 233.283 81.6037 234.044C81.5153 234.676 82.0403 235.212 82.5536 235.59C86.7482 238.722 92.4 238.923 97.6506 238.994C98.2642 239 98.9013 239.006 99.4618 238.77C100.583 238.298 101.125 236.817 100.6 235.726C100.412 235.324 100.111 234.988 99.7921 234.681C95.5798 230.57 88.6419 231.749 83.3854 232.8ZM188.197 230.682C183.46 234.145 188.25 237.242 194.233 234.947C197.454 233.708 200.545 232.487 203.849 231.661C204.917 231.395 211.365 229.997 211.365 228.552C211.365 224.712 204.103 225.62 199.53 226.257C195.843 226.77 192.103 227.826 188.197 230.682Z" fill="#ECF3FF"/>
</svg>
